<svg id="svg" version="1.1" xmlns="http://www.w3.org/2000/svg" xmlns:xlink="http://www.w3.org/1999/xlink" width="400" height="400" viewBox="0, 0, 400,400"><g id="svgg"><path id="path0" d="M85.304 111.325 C 82.331 113.332,82.400 112.647,82.400 140.196 L 82.400 164.800 200.000 164.800 L 317.600 164.800 317.600 140.187 C 317.600 112.275,317.676 112.907,314.101 110.900 C 313.394 110.503,289.845 110.405,199.905 110.425 L 86.600 110.450 85.304 111.325 M120.767 138.531 C 123.973 140.652,124.866 145.791,122.535 148.708 C 116.490 156.275,105.402 147.869,111.123 140.056 C 113.268 137.127,117.609 136.440,120.767 138.531 M146.840 137.654 C 154.282 140.142,152.516 151.600,144.691 151.600 C 141.383 151.600,139.293 150.297,137.956 147.400 C 135.314 141.676,140.816 135.641,146.840 137.654 M175.370 138.028 C 180.672 140.520,180.805 148.145,175.593 150.804 C 169.908 153.704,163.414 148.381,165.387 142.439 C 166.854 138.024,171.239 136.086,175.370 138.028 M82.400 232.240 C 82.400 290.840,82.190 286.483,85.125 288.723 L 86.537 289.800 106.368 289.800 C 123.795 289.800,126.182 289.727,126.053 289.200 C 123.095 277.118,122.662 268.536,124.427 257.000 C 124.968 253.465,125.890 249.716,127.280 245.400 C 128.196 242.555,128.171 242.613,130.804 237.000 C 135.918 226.093,141.863 218.495,152.333 209.483 C 156.319 206.053,165.649 200.651,171.400 198.443 C 172.720 197.937,174.160 197.376,174.600 197.197 C 175.874 196.680,176.905 196.334,178.300 195.954 C 179.015 195.759,180.275 195.405,181.100 195.167 C 186.018 193.746,192.227 193.051,200.000 193.051 C 207.773 193.051,213.982 193.746,218.900 195.167 C 219.725 195.405,220.985 195.762,221.700 195.959 C 229.081 198.000,244.352 205.793,246.800 208.768 C 246.910 208.902,247.990 209.818,249.200 210.804 C 252.991 213.894,256.529 217.624,261.524 223.800 C 263.825 226.644,269.793 237.495,271.645 242.200 C 275.378 251.685,277.376 265.306,276.443 274.903 C 275.994 279.516,275.609 282.048,274.783 285.800 C 274.589 286.680,274.320 287.985,274.184 288.700 L 273.936 290.000 292.468 289.996 C 313.668 289.991,313.549 290.001,315.596 288.040 C 318.078 285.664,318.004 287.656,317.723 231.031 L 317.468 179.600 199.934 179.600 L 82.400 179.600 82.400 232.240 M197.453 208.051 C 193.963 209.892,190.937 214.120,187.470 222.000 C 186.104 225.105,183.555 233.603,183.848 234.077 C 184.188 234.628,216.400 234.480,216.400 233.928 C 216.400 233.669,216.222 232.904,216.004 232.228 C 213.848 225.535,213.054 223.195,212.529 222.000 C 207.287 210.061,202.332 205.478,197.453 208.051 M171.790 214.216 C 165.069 217.729,162.132 219.885,156.555 225.400 C 152.609 229.302,149.200 233.304,149.200 234.036 C 149.200 234.589,168.286 234.509,168.629 233.954 C 168.780 233.708,169.410 231.593,170.027 229.254 C 171.495 223.695,171.954 222.274,173.637 218.100 C 173.837 217.605,174.180 216.750,174.400 216.200 C 174.620 215.650,175.001 214.768,175.246 214.239 C 176.145 212.307,175.449 212.302,171.790 214.216 M224.400 213.026 C 224.400 213.348,224.559 213.923,224.753 214.305 C 225.127 215.040,225.876 216.799,226.454 218.300 C 226.644 218.795,226.971 219.605,227.180 220.100 C 228.097 222.273,228.955 225.096,230.331 230.472 C 230.764 232.161,231.237 233.736,231.383 233.972 C 231.750 234.567,250.800 234.568,250.800 233.973 C 250.800 233.088,245.250 226.770,241.149 222.986 C 235.933 218.174,224.400 211.316,224.400 213.026 M141.445 249.127 C 137.085 256.182,136.790 276.059,140.866 288.200 L 141.403 289.800 153.802 289.800 L 166.200 289.800 166.109 288.600 C 164.904 272.627,164.904 263.192,166.109 250.000 L 166.200 249.000 153.927 248.894 C 147.177 248.836,141.560 248.941,141.445 249.127 M180.351 252.700 C 179.601 258.010,179.598 281.596,180.348 286.500 L 180.883 290.000 200.023 290.000 L 219.164 290.000 219.382 288.700 C 220.767 280.448,220.760 258.964,219.370 250.300 L 219.130 248.800 200.016 248.800 L 180.903 248.800 180.351 252.700 M233.904 249.288 C 233.814 249.557,233.877 250.592,234.043 251.588 C 235.237 258.748,235.172 274.735,233.891 288.800 L 233.800 289.800 246.046 289.906 C 255.554 289.988,258.375 289.898,258.663 289.506 C 259.145 288.847,259.808 286.745,260.399 284.000 C 260.660 282.790,261.028 281.170,261.217 280.400 C 262.496 275.195,262.493 263.519,261.210 258.400 C 261.017 257.630,260.637 255.920,260.365 254.600 C 260.094 253.280,259.720 252.029,259.536 251.820 C 259.351 251.611,259.200 251.062,259.200 250.600 C 259.200 248.848,258.855 248.800,246.153 248.800 C 236.996 248.800,234.027 248.918,233.904 249.288 " stroke="none" fill="#2d89fc" fill-rule="evenodd"></path><path id="path1" d="M181.590 0.137 C 181.474 0.256,179.899 0.390,178.090 0.433 C 176.280 0.477,174.800 0.667,174.800 0.856 C 174.800 1.045,173.461 1.200,171.824 1.200 C 170.187 1.200,168.736 1.380,168.600 1.600 C 168.464 1.820,167.589 2.000,166.656 2.000 C 165.723 2.000,164.789 2.170,164.580 2.377 C 164.371 2.585,163.255 2.797,162.100 2.849 C 160.945 2.901,160.000 3.091,160.000 3.271 C 160.000 3.452,159.226 3.600,158.280 3.600 C 157.334 3.600,156.389 3.771,156.179 3.981 C 155.970 4.190,155.124 4.407,154.299 4.463 C 153.475 4.518,152.800 4.707,152.800 4.882 C 152.800 5.057,152.069 5.200,151.176 5.200 C 150.196 5.200,149.651 5.358,149.800 5.600 C 149.947 5.838,149.471 6.000,148.624 6.000 C 147.841 6.000,147.200 6.180,147.200 6.400 C 147.200 6.620,146.581 6.800,145.824 6.800 C 145.067 6.800,144.336 6.980,144.200 7.200 C 144.064 7.420,143.323 7.600,142.553 7.600 C 141.783 7.600,141.249 7.755,141.366 7.945 C 141.484 8.135,140.653 8.401,139.521 8.535 C 138.388 8.669,137.276 8.964,137.051 9.189 C 136.825 9.415,136.136 9.600,135.520 9.600 C 134.904 9.600,134.400 9.780,134.400 10.000 C 134.400 10.220,134.031 10.400,133.580 10.400 C 133.129 10.400,132.231 10.674,131.584 11.008 C 130.938 11.343,130.318 11.617,130.208 11.619 C 129.802 11.625,128.572 12.077,127.600 12.578 C 127.050 12.862,126.375 13.013,126.100 12.914 C 125.825 12.814,125.600 12.928,125.600 13.167 C 125.600 13.405,125.240 13.600,124.800 13.600 C 124.360 13.600,124.000 13.780,124.000 14.000 C 124.000 14.220,123.561 14.400,123.024 14.400 C 122.487 14.400,121.936 14.580,121.800 14.800 C 121.664 15.020,121.203 15.200,120.776 15.200 C 120.349 15.200,120.000 15.336,120.000 15.502 C 120.000 15.669,119.415 16.044,118.700 16.336 C 115.918 17.473,115.363 17.717,114.300 18.271 C 113.695 18.587,113.200 18.732,113.200 18.594 C 113.200 18.456,112.915 18.627,112.568 18.975 C 112.220 19.323,111.770 19.505,111.568 19.380 C 111.365 19.255,111.200 19.322,111.200 19.528 C 111.200 19.734,110.615 20.142,109.900 20.435 C 109.185 20.727,108.360 21.200,108.068 21.487 C 107.775 21.773,107.370 21.905,107.168 21.780 C 106.965 21.655,106.800 21.743,106.800 21.976 C 106.800 22.209,106.440 22.400,106.000 22.400 C 105.560 22.400,105.200 22.580,105.200 22.800 C 105.200 23.020,104.880 23.200,104.488 23.200 C 104.097 23.200,103.517 23.560,103.200 24.000 C 102.883 24.440,102.303 24.800,101.912 24.800 C 101.520 24.800,101.200 24.980,101.200 25.200 C 101.200 25.420,101.065 25.557,100.900 25.505 C 100.271 25.305,98.021 26.511,98.271 26.914 C 98.430 27.172,98.285 27.242,97.899 27.093 C 97.528 26.951,97.171 27.099,97.036 27.451 C 96.909 27.781,96.624 27.939,96.403 27.802 C 96.181 27.665,96.000 27.743,96.000 27.976 C 96.000 28.209,95.758 28.400,95.462 28.400 C 95.166 28.400,94.598 28.760,94.200 29.200 C 93.802 29.640,93.184 30.000,92.826 30.000 C 92.469 30.000,91.917 30.360,91.600 30.800 C 91.283 31.240,90.743 31.600,90.400 31.600 C 90.057 31.600,89.517 31.960,89.200 32.400 C 88.883 32.840,88.393 33.200,88.112 33.200 C 87.830 33.200,87.600 33.380,87.600 33.600 C 87.600 33.820,87.330 34.000,87.000 34.000 C 86.670 34.000,86.400 34.180,86.400 34.400 C 86.400 34.620,86.149 34.800,85.842 34.800 C 85.536 34.800,84.707 35.340,84.000 36.000 C 83.293 36.660,82.504 37.200,82.246 37.200 C 81.988 37.200,81.517 37.560,81.200 38.000 C 80.883 38.440,80.382 38.800,80.086 38.800 C 79.790 38.800,79.094 39.340,78.539 40.000 C 77.983 40.660,77.275 41.200,76.964 41.200 C 76.654 41.200,76.400 41.368,76.400 41.573 C 76.400 41.778,76.040 42.060,75.600 42.200 C 75.160 42.340,74.800 42.722,74.800 43.051 C 74.800 43.379,74.620 43.536,74.400 43.400 C 74.180 43.264,74.000 43.331,74.000 43.549 C 74.000 43.768,73.669 44.051,73.264 44.180 C 72.859 44.308,71.517 45.400,70.281 46.607 C 69.046 47.813,67.864 48.800,67.656 48.800 C 67.105 48.800,61.224 54.691,61.500 54.967 C 61.628 55.095,61.510 55.200,61.238 55.200 C 60.595 55.200,59.564 56.231,59.886 56.552 C 60.022 56.689,59.845 56.800,59.494 56.800 C 59.142 56.800,58.740 57.160,58.600 57.600 C 58.460 58.040,58.193 58.400,58.006 58.400 C 57.462 58.400,54.400 61.487,54.400 62.035 C 54.400 62.309,54.303 62.436,54.184 62.317 C 53.903 62.036,50.072 65.794,48.798 67.600 C 48.255 68.370,47.043 69.770,46.105 70.711 C 45.167 71.651,44.400 72.577,44.400 72.768 C 44.400 72.959,43.905 73.671,43.300 74.349 C 41.432 76.444,41.200 76.754,41.200 77.148 C 41.200 77.357,40.660 77.983,40.000 78.539 C 39.340 79.094,38.800 79.790,38.800 80.086 C 38.800 80.382,38.440 80.883,38.000 81.200 C 37.560 81.517,37.200 82.007,37.200 82.288 C 37.200 82.570,37.064 82.800,36.898 82.800 C 36.731 82.800,36.356 83.341,36.063 84.002 C 35.765 84.675,35.343 85.088,35.104 84.940 C 34.863 84.792,34.792 84.864,34.942 85.106 C 35.088 85.342,34.936 85.807,34.604 86.139 C 34.272 86.471,34.000 86.936,34.000 87.171 C 34.000 87.407,33.820 87.600,33.600 87.600 C 33.380 87.600,33.200 87.804,33.200 88.053 C 33.200 88.302,32.885 88.797,32.500 89.153 C 32.115 89.509,31.742 90.070,31.670 90.400 C 31.599 90.730,31.374 91.060,31.170 91.133 C 30.967 91.207,30.800 91.552,30.800 91.900 C 30.800 92.248,30.685 92.418,30.544 92.277 C 30.287 92.021,28.984 93.989,28.542 95.300 C 28.413 95.685,28.148 96.000,27.953 96.000 C 27.759 96.000,27.600 96.270,27.600 96.600 C 27.600 96.930,27.447 97.200,27.261 97.200 C 26.879 97.200,25.345 100.415,25.500 100.892 C 25.555 101.061,25.420 101.200,25.200 101.200 C 24.980 101.200,24.800 101.520,24.800 101.912 C 24.800 102.303,24.440 102.883,24.000 103.200 C 23.560 103.517,23.200 103.990,23.200 104.251 C 23.200 104.728,21.591 108.028,21.177 108.400 C 21.055 108.510,20.718 109.185,20.429 109.900 C 20.140 110.615,19.745 111.200,19.551 111.200 C 19.358 111.200,19.221 111.335,19.247 111.500 C 19.390 112.404,19.148 113.215,18.800 113.000 C 18.580 112.864,18.400 113.028,18.400 113.364 C 18.400 113.701,18.040 114.617,17.600 115.400 C 17.160 116.183,16.800 117.091,16.800 117.418 C 16.800 117.965,16.070 119.532,15.598 120.000 C 15.487 120.110,15.155 120.920,14.861 121.800 C 13.990 124.404,13.426 125.600,13.069 125.600 C 12.884 125.600,12.814 125.825,12.914 126.100 C 13.013 126.375,12.862 127.050,12.578 127.600 C 11.940 128.838,11.526 129.961,11.330 130.983 C 11.247 131.413,10.965 131.898,10.701 132.061 C 10.438 132.223,10.348 132.482,10.501 132.634 C 10.654 132.787,10.539 133.382,10.245 133.956 C 9.372 135.663,8.832 137.619,9.067 138.229 C 9.187 138.543,9.086 138.800,8.843 138.800 C 8.599 138.800,8.400 139.192,8.400 139.672 C 8.400 140.592,7.740 142.928,7.151 144.095 C 6.958 144.477,6.800 145.141,6.800 145.571 C 6.800 146.001,6.620 146.464,6.400 146.600 C 6.180 146.736,6.000 147.467,6.000 148.224 C 6.000 148.981,5.857 149.600,5.682 149.600 C 5.507 149.600,5.318 150.270,5.263 151.088 C 5.208 151.906,5.033 152.671,4.873 152.788 C 4.713 152.905,4.526 153.630,4.458 154.400 C 4.389 155.170,4.168 155.971,3.966 156.180 C 3.765 156.389,3.600 157.424,3.600 158.480 C 3.600 159.536,3.420 160.400,3.200 160.400 C 2.980 160.400,2.800 161.210,2.800 162.200 C 2.800 163.190,2.635 164.000,2.434 164.000 C 2.233 164.000,1.966 165.125,1.841 166.500 C 1.234 173.187,1.102 174.229,0.815 174.600 C -0.007 175.665,-0.118 224.043,0.700 224.860 C 0.986 225.146,1.200 226.363,1.200 227.706 C 1.200 228.997,1.370 230.370,1.577 230.757 C 1.784 231.145,1.995 232.438,2.045 233.631 C 2.095 234.824,2.300 235.910,2.501 236.044 C 2.702 236.179,2.867 237.155,2.867 238.214 C 2.867 239.512,2.984 239.954,3.227 239.570 C 3.476 239.176,3.590 239.502,3.594 240.620 C 3.597 241.511,3.816 242.456,4.080 242.720 C 4.453 243.093,4.436 243.200,4.000 243.200 C 3.564 243.200,3.547 243.307,3.920 243.680 C 4.184 243.944,4.400 244.675,4.400 245.304 C 4.400 245.964,4.569 246.343,4.800 246.200 C 5.038 246.053,5.200 246.521,5.200 247.353 C 5.200 248.123,5.351 248.846,5.535 248.960 C 5.719 249.073,5.894 249.836,5.925 250.654 C 5.956 251.472,6.188 252.269,6.442 252.426 C 6.695 252.582,6.799 252.879,6.672 253.084 C 6.545 253.289,6.704 253.964,7.025 254.583 C 7.346 255.202,7.652 256.312,7.705 257.049 C 7.757 257.786,8.036 258.480,8.325 258.592 C 8.614 258.703,8.740 258.974,8.605 259.193 C 8.462 259.422,8.621 259.490,8.979 259.353 C 9.391 259.194,9.600 259.345,9.600 259.800 C 9.600 260.261,9.807 260.406,10.233 260.243 C 10.581 260.109,26.780 260.000,46.231 260.000 L 81.596 260.000 81.698 219.500 L 81.800 179.000 200.100 178.899 L 318.400 178.799 318.400 219.399 L 318.400 260.000 353.971 260.000 C 385.776 260.000,389.609 260.067,390.171 260.629 C 390.950 261.407,390.978 261.754,390.239 261.470 C 389.903 261.341,389.596 261.573,389.471 262.051 C 389.299 262.707,389.364 262.762,389.841 262.366 C 390.311 261.976,390.372 262.009,390.166 262.543 C 390.028 262.905,390.084 263.200,390.291 263.200 C 390.497 263.200,390.674 262.975,390.682 262.700 C 390.711 261.793,390.994 261.005,391.400 260.700 C 391.651 260.512,391.576 260.253,391.200 260.006 C 390.667 259.656,390.667 259.611,391.200 259.600 C 391.733 259.589,391.733 259.545,391.200 259.200 C 390.607 258.817,391.065 258.589,392.100 258.753 C 392.552 258.824,392.460 258.084,391.981 257.788 C 391.690 257.608,391.689 257.375,391.977 257.028 C 392.206 256.752,392.275 256.408,392.130 256.263 C 391.985 256.118,392.148 256.000,392.492 256.000 C 392.950 256.000,393.101 255.634,393.054 254.635 C 393.018 253.884,393.122 253.351,393.283 253.451 C 393.676 253.694,394.144 251.752,393.867 251.030 C 393.746 250.716,393.907 250.243,394.224 249.980 C 394.541 249.717,394.800 248.984,394.800 248.351 C 394.800 247.700,395.017 247.197,395.300 247.194 C 395.633 247.190,395.600 247.058,395.200 246.800 C 394.870 246.587,394.786 246.409,395.013 246.406 C 395.240 246.403,395.466 245.913,395.515 245.318 C 395.564 244.722,395.784 244.056,396.002 243.838 C 396.221 243.619,396.400 242.565,396.400 241.496 C 396.400 240.427,396.551 239.646,396.736 239.760 C 396.920 239.874,397.103 239.126,397.142 238.097 C 397.181 237.069,397.390 236.050,397.607 235.833 C 397.823 235.617,398.000 234.497,398.000 233.344 C 398.000 232.191,398.180 231.136,398.400 231.000 C 398.620 230.864,398.803 229.278,398.806 227.476 C 398.810 225.456,398.946 224.411,399.161 224.751 C 399.774 225.718,400.110 211.821,399.926 193.107 C 399.802 180.377,399.619 175.059,399.299 174.861 C 399.051 174.708,398.809 173.364,398.761 171.876 C 398.712 170.387,398.522 169.075,398.336 168.961 C 398.151 168.846,398.000 167.784,398.000 166.600 C 398.000 165.416,397.820 164.336,397.600 164.200 C 397.380 164.064,397.200 163.164,397.200 162.200 C 397.200 161.236,397.020 160.336,396.800 160.200 C 396.580 160.064,396.400 159.164,396.400 158.200 C 396.400 157.236,396.220 156.336,396.000 156.200 C 395.780 156.064,395.600 155.243,395.600 154.376 C 395.600 153.509,395.420 152.800,395.200 152.800 C 394.980 152.800,394.800 152.170,394.800 151.400 C 394.800 150.630,394.620 150.000,394.400 150.000 C 394.180 150.000,394.000 149.291,394.000 148.424 C 394.000 147.557,393.820 146.736,393.600 146.600 C 393.380 146.464,393.200 145.823,393.200 145.176 C 393.200 144.529,393.020 144.000,392.800 144.000 C 392.580 144.000,392.400 143.460,392.400 142.800 C 392.400 142.140,392.240 141.600,392.044 141.600 C 391.700 141.600,391.205 139.435,391.177 137.811 C 391.170 137.378,390.884 136.714,390.543 136.337 C 390.201 135.959,390.037 135.464,390.177 135.237 C 390.318 135.009,390.111 134.330,389.717 133.729 C 389.322 133.127,389.071 132.627,389.159 132.618 C 389.399 132.591,388.827 130.802,387.978 128.925 C 387.561 128.004,386.992 126.519,386.713 125.625 C 386.433 124.731,386.069 124.000,385.903 124.000 C 385.736 124.000,385.600 123.561,385.600 123.024 C 385.600 122.487,385.420 121.936,385.200 121.800 C 384.980 121.664,384.800 121.193,384.800 120.753 C 384.800 120.313,384.620 120.064,384.400 120.200 C 384.173 120.340,384.000 120.004,384.000 119.424 C 384.000 118.861,383.820 118.400,383.600 118.400 C 383.380 118.400,383.200 118.040,383.200 117.600 C 383.200 117.160,383.020 116.800,382.800 116.800 C 382.580 116.800,382.401 116.485,382.403 116.100 C 382.407 115.325,379.186 108.678,378.704 108.467 C 378.537 108.393,378.400 108.071,378.400 107.750 C 378.400 107.429,378.040 106.780,377.600 106.308 C 377.160 105.836,376.800 105.157,376.800 104.800 C 376.800 104.443,376.440 103.764,376.000 103.292 C 375.560 102.820,375.200 102.240,375.200 102.003 C 375.200 101.371,373.157 97.422,372.749 97.267 C 372.557 97.193,372.400 96.956,372.400 96.739 C 372.400 96.522,371.860 95.559,371.200 94.600 C 370.540 93.641,370.000 92.703,370.000 92.516 C 370.000 92.329,369.640 91.917,369.200 91.600 C 368.760 91.283,368.400 90.743,368.400 90.400 C 368.400 90.057,368.040 89.517,367.600 89.200 C 367.160 88.883,366.800 88.343,366.800 88.000 C 366.800 87.657,366.440 87.117,366.000 86.800 C 365.560 86.483,365.200 85.946,365.200 85.608 C 365.200 85.269,364.840 84.768,364.400 84.493 C 363.960 84.218,363.599 83.770,363.598 83.497 C 363.597 83.223,363.057 82.425,362.398 81.722 C 361.739 81.019,361.200 80.236,361.200 79.982 C 361.200 79.729,360.660 79.017,360.000 78.400 C 359.340 77.783,358.800 77.113,358.800 76.911 C 358.800 76.709,358.035 75.729,357.100 74.735 C 356.165 73.740,355.362 72.739,355.315 72.509 C 355.269 72.279,354.536 71.396,353.688 70.546 C 352.840 69.696,351.742 68.417,351.249 67.705 C 349.957 65.838,343.728 59.605,343.442 59.892 C 343.309 60.025,343.200 59.845,343.200 59.494 C 343.200 59.142,342.840 58.740,342.400 58.600 C 341.960 58.460,341.600 58.192,341.600 58.004 C 341.600 57.489,334.604 50.645,333.441 50.022 C 332.883 49.724,332.522 49.327,332.637 49.140 C 332.753 48.953,332.675 48.800,332.464 48.800 C 332.253 48.800,331.162 47.900,330.039 46.800 C 328.915 45.700,327.771 44.800,327.495 44.800 C 327.220 44.800,326.426 44.215,325.731 43.500 C 324.066 41.786,323.323 41.200,322.817 41.200 C 322.588 41.200,322.400 41.020,322.400 40.800 C 322.400 40.580,322.119 40.400,321.776 40.400 C 321.433 40.400,321.235 40.265,321.334 40.100 C 321.543 39.756,320.804 39.049,320.079 38.898 C 319.809 38.842,319.025 38.257,318.335 37.598 C 317.646 36.939,316.878 36.400,316.629 36.400 C 316.380 36.400,315.917 36.040,315.600 35.600 C 315.283 35.160,314.743 34.800,314.400 34.800 C 314.057 34.800,313.517 34.440,313.200 34.000 C 312.883 33.560,312.343 33.200,312.000 33.200 C 311.657 33.200,311.124 32.850,310.815 32.421 C 310.507 31.993,310.109 31.733,309.930 31.843 C 309.752 31.953,309.147 31.583,308.585 31.022 C 308.023 30.460,307.347 29.993,307.082 29.984 C 306.817 29.975,305.977 29.435,305.215 28.784 C 304.453 28.133,303.613 27.600,303.348 27.600 C 303.083 27.600,302.807 27.465,302.733 27.300 C 302.553 26.895,298.611 24.800,298.029 24.800 C 297.775 24.800,297.180 24.440,296.708 24.000 C 296.236 23.560,295.512 23.200,295.101 23.200 C 294.689 23.200,294.464 23.020,294.600 22.800 C 294.736 22.580,294.477 22.400,294.024 22.400 C 293.571 22.400,293.200 22.220,293.200 22.000 C 293.200 21.780,292.840 21.600,292.400 21.600 C 291.960 21.600,291.595 21.465,291.589 21.300 C 291.583 21.135,290.593 20.551,289.389 20.003 C 288.185 19.455,287.200 18.870,287.200 18.703 C 287.200 18.536,286.921 18.400,286.581 18.400 C 286.240 18.400,285.216 18.040,284.306 17.600 C 283.395 17.160,282.414 16.800,282.125 16.800 C 281.836 16.800,281.600 16.620,281.600 16.400 C 281.600 16.180,281.240 16.000,280.800 16.000 C 280.360 16.000,280.000 15.820,280.000 15.600 C 280.000 15.380,279.865 15.221,279.700 15.247 C 278.881 15.377,277.975 15.164,278.149 14.883 C 278.256 14.709,277.986 14.539,277.549 14.506 C 276.506 14.428,274.400 13.489,274.400 13.102 C 274.400 12.936,273.961 12.800,273.424 12.800 C 272.887 12.800,272.358 12.656,272.249 12.479 C 272.140 12.303,271.139 11.910,270.025 11.607 C 268.911 11.304,268.000 10.908,268.000 10.728 C 268.000 10.547,267.460 10.400,266.800 10.400 C 266.140 10.400,265.600 10.240,265.600 10.045 C 265.600 9.699,263.904 9.230,262.100 9.076 C 261.605 9.034,261.200 8.865,261.200 8.700 C 261.200 8.535,260.660 8.400,260.000 8.400 C 259.340 8.400,258.800 8.220,258.800 8.000 C 258.800 7.780,258.206 7.600,257.480 7.600 C 256.754 7.600,255.986 7.426,255.773 7.213 C 255.561 7.001,254.805 6.783,254.093 6.728 C 253.382 6.674,252.800 6.488,252.800 6.315 C 252.800 6.142,252.260 6.000,251.600 6.000 C 250.940 6.000,250.400 5.820,250.400 5.600 C 250.400 5.380,249.680 5.200,248.800 5.200 C 247.920 5.200,247.200 5.020,247.200 4.800 C 247.200 4.580,246.491 4.400,245.624 4.400 C 244.757 4.400,243.958 4.256,243.849 4.080 C 243.740 3.904,242.879 3.714,241.936 3.658 C 240.993 3.603,240.126 3.423,240.010 3.259 C 239.895 3.095,238.990 2.908,238.000 2.843 C 237.010 2.778,236.110 2.594,236.000 2.435 C 235.890 2.275,234.814 2.097,233.609 2.038 C 232.404 1.979,231.111 1.767,230.736 1.566 C 230.360 1.364,228.997 1.200,227.706 1.200 C 226.368 1.200,225.146 0.986,224.862 0.702 C 224.355 0.195,182.068 -0.358,181.590 0.137 M313.000 109.600 C 313.136 109.820,313.570 110.000,313.964 110.000 C 314.359 110.000,315.241 110.534,315.924 111.187 C 318.539 113.686,318.416 112.191,318.303 140.286 L 318.200 165.800 200.224 165.901 C 106.107 165.981,82.184 165.900,81.930 165.501 C 81.068 164.143,81.566 114.661,82.456 113.200 C 83.508 111.474,85.175 110.001,86.076 110.000 C 86.448 110.000,86.864 109.820,87.000 109.600 C 87.164 109.335,125.263 109.200,200.000 109.200 C 274.737 109.200,312.836 109.335,313.000 109.600 M114.634 138.593 C 111.998 139.532,110.400 141.812,110.400 144.633 C 110.400 151.143,119.633 153.028,122.580 147.120 C 125.058 142.153,119.969 136.692,114.634 138.593 M142.723 138.268 C 141.150 138.532,138.555 141.292,138.279 142.994 C 137.238 149.408,144.494 153.414,148.929 148.873 C 153.400 144.294,149.233 137.173,142.723 138.268 M170.600 138.287 C 168.048 138.907,166.000 141.711,166.000 144.586 C 166.000 151.221,175.638 153.070,178.205 146.927 C 180.219 142.107,175.754 137.035,170.600 138.287 M193.806 193.905 C 191.389 193.973,189.238 194.202,189.026 194.414 C 188.813 194.627,187.787 194.800,186.744 194.800 C 185.701 194.800,184.736 194.980,184.600 195.200 C 184.464 195.420,183.744 195.600,183.000 195.600 C 182.256 195.600,181.536 195.780,181.400 196.000 C 181.264 196.220,180.544 196.400,179.800 196.400 C 179.056 196.400,178.336 196.580,178.200 196.800 C 178.064 197.020,177.513 197.200,176.976 197.200 C 176.439 197.200,176.000 197.380,176.000 197.600 C 176.000 197.820,175.567 198.000,175.038 198.000 C 174.509 198.000,173.294 198.386,172.338 198.857 C 171.382 199.328,170.150 199.889,169.600 200.103 C 169.050 200.318,168.240 200.686,167.800 200.920 C 167.360 201.155,165.830 201.921,164.400 202.623 C 161.616 203.988,156.687 207.124,156.467 207.669 C 156.393 207.851,156.121 208.000,155.862 208.000 C 154.949 208.000,141.627 220.479,141.608 221.353 C 141.603 221.547,141.275 221.997,140.877 222.353 C 139.969 223.165,135.600 229.811,135.600 230.379 C 135.600 230.611,135.465 230.801,135.300 230.803 C 135.135 230.805,134.799 231.210,134.554 231.703 C 134.309 232.196,133.364 234.020,132.454 235.755 C 131.544 237.491,130.800 239.156,130.800 239.455 C 130.800 239.755,130.620 240.000,130.400 240.000 C 130.180 240.000,130.000 240.360,130.000 240.800 C 130.000 241.240,129.820 241.600,129.600 241.600 C 129.380 241.600,129.200 242.140,129.200 242.800 C 129.200 243.460,129.020 244.000,128.800 244.000 C 128.580 244.000,128.400 244.540,128.400 245.200 C 128.400 245.860,128.220 246.400,128.000 246.400 C 127.780 246.400,127.600 246.940,127.600 247.600 C 127.600 248.260,127.420 248.800,127.200 248.800 C 126.980 248.800,126.800 249.520,126.800 250.400 C 126.800 251.280,126.620 252.000,126.400 252.000 C 126.180 252.000,126.000 252.810,126.000 253.800 C 126.000 254.790,125.820 255.600,125.600 255.600 C 125.380 255.600,125.200 256.590,125.200 257.800 L 125.200 260.000 131.029 260.000 C 137.728 260.000,138.000 259.884,138.000 257.029 C 138.000 256.023,138.180 255.200,138.400 255.200 C 138.620 255.200,138.800 254.570,138.800 253.800 C 138.800 253.030,138.980 252.400,139.200 252.400 C 139.420 252.400,139.600 251.860,139.600 251.200 C 139.600 250.540,139.780 250.000,140.000 250.000 C 140.220 250.000,140.400 249.550,140.400 249.000 L 140.400 248.000 153.813 248.000 C 167.795 248.000,168.829 248.131,167.253 249.707 C 166.967 249.993,166.800 251.889,166.800 254.847 C 166.800 258.222,166.660 259.590,166.300 259.735 C 166.025 259.846,168.635 259.951,172.100 259.968 L 178.400 260.000 178.400 258.224 C 178.400 257.247,178.580 256.336,178.800 256.200 C 179.020 256.064,179.200 254.761,179.200 253.305 C 179.200 251.848,179.416 250.059,179.680 249.328 L 180.161 248.000 200.000 248.000 L 219.839 248.000 220.320 249.328 C 220.584 250.059,220.800 251.848,220.800 253.305 C 220.800 254.761,220.980 256.064,221.200 256.200 C 221.420 256.336,221.600 257.247,221.600 258.224 L 221.600 260.000 227.900 259.968 C 231.365 259.951,233.975 259.846,233.700 259.735 C 233.341 259.590,233.198 258.221,233.194 254.867 C 233.191 252.300,233.021 249.936,232.817 249.613 C 231.867 248.112,232.811 248.000,246.449 248.000 L 259.600 248.000 259.600 249.000 C 259.600 249.550,259.780 250.000,260.000 250.000 C 260.220 250.000,260.400 250.540,260.400 251.200 C 260.400 251.860,260.580 252.400,260.800 252.400 C 261.020 252.400,261.200 253.019,261.200 253.776 C 261.200 254.533,261.380 255.264,261.600 255.400 C 261.820 255.536,262.000 256.627,262.000 257.824 L 262.000 260.000 268.400 260.000 L 274.800 260.000 274.800 257.800 C 274.800 256.590,274.620 255.600,274.400 255.600 C 274.180 255.600,274.000 254.790,274.000 253.800 C 274.000 252.810,273.820 252.000,273.600 252.000 C 273.380 252.000,273.200 251.280,273.200 250.400 C 273.200 249.520,273.020 248.800,272.800 248.800 C 272.580 248.800,272.400 248.271,272.400 247.624 C 272.400 246.977,272.220 246.336,272.000 246.200 C 271.780 246.064,271.600 245.513,271.600 244.976 C 271.600 244.439,271.420 244.000,271.200 244.000 C 270.980 244.000,270.800 243.460,270.800 242.800 C 270.800 242.140,270.620 241.600,270.400 241.600 C 270.180 241.600,270.000 241.240,270.000 240.800 C 270.000 240.360,269.820 240.000,269.600 240.000 C 269.380 240.000,269.200 239.749,269.200 239.443 C 269.200 238.755,265.601 231.789,263.757 228.905 C 263.010 227.739,262.400 226.608,262.400 226.392 C 262.400 226.177,262.259 226.000,262.086 226.000 C 261.914 226.000,261.451 225.455,261.057 224.789 C 260.664 224.123,259.905 223.141,259.371 222.607 C 258.837 222.073,258.400 221.492,258.400 221.316 C 258.400 220.529,245.033 208.000,244.193 208.000 C 243.964 208.000,243.517 207.640,243.200 207.200 C 242.883 206.760,242.471 206.400,242.284 206.400 C 242.097 206.400,241.185 205.878,240.257 205.239 C 238.525 204.048,231.851 200.585,229.000 199.398 C 228.120 199.032,227.087 198.568,226.705 198.366 C 226.323 198.165,225.659 198.000,225.229 198.000 C 224.799 198.000,224.336 197.820,224.200 197.600 C 224.064 197.380,223.524 197.200,223.000 197.200 C 222.476 197.200,221.936 197.020,221.800 196.800 C 221.664 196.580,221.034 196.400,220.400 196.400 C 219.766 196.400,219.136 196.220,219.000 196.000 C 218.864 195.780,218.054 195.600,217.200 195.600 C 216.346 195.600,215.536 195.420,215.400 195.200 C 215.264 194.980,214.432 194.800,213.550 194.800 C 212.669 194.800,211.644 194.645,211.274 194.455 C 210.487 194.051,200.146 193.726,193.806 193.905 M203.738 207.681 C 204.432 208.166,205.329 208.931,205.730 209.381 C 207.903 211.817,208.642 212.721,209.038 213.423 C 209.278 213.850,209.728 214.650,210.038 215.200 C 210.347 215.750,210.692 216.290,210.805 216.400 C 210.918 216.510,211.433 217.500,211.949 218.600 C 212.465 219.700,213.048 220.913,213.244 221.295 C 213.440 221.677,213.600 222.262,213.600 222.595 C 213.600 222.928,213.780 223.200,214.000 223.200 C 214.220 223.200,214.400 223.562,214.400 224.005 C 214.400 224.448,214.580 225.168,214.800 225.605 C 215.020 226.042,215.380 226.758,215.600 227.195 C 215.820 227.632,216.000 228.431,216.000 228.971 C 216.000 229.511,216.180 230.064,216.400 230.200 C 216.620 230.336,216.800 230.941,216.800 231.544 C 216.800 232.147,216.995 232.835,217.234 233.074 C 217.472 233.312,217.607 233.933,217.534 234.454 L 217.400 235.400 200.109 235.504 L 182.817 235.608 182.558 234.575 C 182.411 233.989,182.494 233.346,182.749 233.091 C 182.997 232.843,183.200 232.224,183.200 231.715 C 183.200 231.206,183.362 230.477,183.561 230.095 C 183.760 229.713,184.151 228.590,184.431 227.600 C 184.710 226.610,185.088 225.629,185.270 225.420 C 185.451 225.211,185.600 224.626,185.600 224.120 C 185.600 223.614,185.780 223.200,186.000 223.200 C 186.220 223.200,186.400 222.928,186.400 222.595 C 186.400 222.262,186.560 221.677,186.756 221.295 C 186.952 220.913,187.535 219.700,188.051 218.600 C 188.567 217.500,189.082 216.510,189.195 216.400 C 189.308 216.290,189.597 215.840,189.838 215.400 C 191.251 212.816,192.812 210.771,194.534 209.249 C 197.257 206.841,197.344 206.801,199.938 206.800 C 201.906 206.800,202.760 206.998,203.738 207.681 M177.200 211.660 C 177.200 211.913,176.731 213.128,176.158 214.360 C 174.031 218.933,172.438 223.533,171.227 228.600 C 170.433 231.926,169.935 233.753,169.564 234.707 L 169.211 235.613 158.506 235.507 L 147.800 235.400 147.904 234.454 C 147.960 233.933,148.410 233.020,148.904 232.425 C 149.397 231.830,150.250 230.736,150.800 229.995 C 152.173 228.145,157.932 222.392,159.838 220.967 C 160.697 220.325,161.632 219.581,161.915 219.314 C 162.198 219.047,162.963 218.513,163.615 218.128 C 164.267 217.743,164.800 217.286,164.800 217.114 C 164.800 216.941,164.997 216.800,165.238 216.800 C 165.479 216.800,166.154 216.461,166.738 216.047 C 170.634 213.283,177.200 210.530,177.200 211.660 M228.241 213.226 C 230.024 214.090,232.147 215.247,232.959 215.798 C 233.771 216.349,234.516 216.800,234.614 216.800 C 234.817 216.800,237.808 219.015,240.186 220.926 C 245.740 225.388,252.966 233.960,252.208 235.186 C 251.827 235.804,230.940 235.750,230.557 235.131 C 230.276 234.676,230.109 234.013,229.214 229.800 C 228.791 227.806,227.394 222.919,226.813 221.400 C 225.778 218.694,224.998 216.845,223.842 214.360 C 222.068 210.547,222.488 210.439,228.241 213.226 M10.244 264.566 C 10.448 265.100,10.395 265.244,10.068 265.042 C 9.811 264.883,9.600 264.924,9.600 265.134 C 9.600 265.447,10.491 266.000,10.997 266.000 C 11.309 266.000,10.909 264.749,10.452 264.296 C 10.054 263.900,10.012 263.955,10.244 264.566 M389.600 264.903 C 389.600 264.959,389.433 265.589,389.228 266.303 C 388.998 267.103,388.998 267.600,389.228 267.600 C 389.433 267.600,389.600 267.150,389.600 266.600 C 389.600 266.050,389.780 265.600,390.000 265.600 C 390.220 265.600,390.400 265.420,390.400 265.200 C 390.400 264.980,390.220 264.800,390.000 264.800 C 389.780 264.800,389.600 264.846,389.600 264.903 M10.626 267.157 C 10.476 267.401,10.554 267.600,10.800 267.600 C 11.046 267.600,11.136 267.780,11.000 268.000 C 10.864 268.220,10.943 268.400,11.176 268.400 C 11.686 268.400,11.710 267.992,11.244 267.257 C 11.004 266.879,10.817 266.849,10.626 267.157 " stroke="none" fill="#e7f3fc" fill-rule="evenodd"></path><path id="path2" d="M144.532 109.500 C 175.295 109.557,225.515 109.557,256.132 109.500 C 286.750 109.443,261.580 109.397,200.200 109.397 C 138.820 109.397,113.770 109.443,144.532 109.500 M318.188 140.400 C 318.188 153.930,318.238 159.465,318.300 152.700 C 318.361 145.935,318.361 134.865,318.300 128.100 C 318.238 121.335,318.188 126.870,318.188 140.400 M121.247 139.782 C 121.823 140.452,122.493 141.360,122.735 141.800 C 122.977 142.240,123.181 142.368,123.188 142.085 C 123.195 141.801,122.525 140.893,121.700 140.067 C 120.865 139.230,120.664 139.104,121.247 139.782 M175.633 138.900 C 175.725 138.955,176.340 139.450,177.000 140.000 L 178.200 141.000 177.230 139.900 C 176.697 139.295,176.082 138.800,175.864 138.800 C 175.645 138.800,175.542 138.845,175.633 138.900 M110.109 144.400 C 110.109 145.390,110.187 145.795,110.282 145.300 C 110.378 144.805,110.378 143.995,110.282 143.500 C 110.187 143.005,110.109 143.410,110.109 144.400 M123.301 144.600 C 123.305 145.480,123.387 145.793,123.483 145.295 C 123.579 144.798,123.575 144.078,123.475 143.695 C 123.375 143.313,123.296 143.720,123.301 144.600 M137.606 145.033 C 137.609 145.455,137.795 146.070,138.018 146.400 C 138.315 146.838,138.352 146.676,138.156 145.800 C 137.827 144.329,137.598 144.010,137.606 145.033 M166.314 147.804 C 166.541 148.247,167.148 148.966,167.663 149.402 C 168.567 150.166,168.565 150.152,167.606 148.997 C 166.013 147.079,165.879 146.955,166.314 147.804 M140.900 179.100 C 173.405 179.156,226.595 179.156,259.100 179.100 C 291.605 179.044,265.010 178.997,200.000 178.997 C 134.990 178.997,108.395 179.044,140.900 179.100 M318.099 232.346 L 318.000 285.291 317.126 286.846 C 316.646 287.700,316.106 288.400,315.926 288.400 C 315.747 288.400,315.600 288.623,315.600 288.896 C 315.600 289.509,317.218 287.759,317.907 286.400 C 318.310 285.604,318.392 274.569,318.306 232.400 L 318.197 179.400 318.099 232.346 M195.305 193.487 C 195.914 193.579,196.814 193.577,197.305 193.482 C 197.797 193.387,197.300 193.311,196.200 193.314 C 195.100 193.317,194.697 193.395,195.305 193.487 M202.905 193.487 C 203.514 193.579,204.414 193.577,204.905 193.482 C 205.397 193.387,204.900 193.311,203.800 193.314 C 202.700 193.317,202.297 193.395,202.905 193.487 M191.100 193.882 C 191.595 193.978,192.405 193.978,192.900 193.882 C 193.395 193.787,192.990 193.709,192.000 193.709 C 191.010 193.709,190.605 193.787,191.100 193.882 M207.100 193.882 C 207.595 193.978,208.405 193.978,208.900 193.882 C 209.395 193.787,208.990 193.709,208.000 193.709 C 207.010 193.709,206.605 193.787,207.100 193.882 M186.600 194.400 C 185.493 194.682,185.477 194.709,186.400 194.747 C 186.950 194.769,187.670 194.613,188.000 194.400 C 188.681 193.960,188.329 193.960,186.600 194.400 M212.000 194.394 C 212.330 194.611,213.035 194.791,213.567 194.794 C 214.851 194.802,214.525 194.575,212.800 194.258 C 211.815 194.077,211.578 194.118,212.000 194.394 M167.100 200.629 C 165.549 201.470,165.725 201.761,167.300 200.959 C 168.808 200.193,169.075 199.994,168.567 200.016 C 168.365 200.025,167.705 200.301,167.100 200.629 M81.709 212.000 C 81.709 212.990,81.787 213.395,81.882 212.900 C 81.978 212.405,81.978 211.595,81.882 211.100 C 81.787 210.605,81.709 211.010,81.709 212.000 M146.400 215.400 C 144.761 217.050,143.510 218.400,143.620 218.400 C 143.730 218.400,145.161 217.050,146.800 215.400 C 148.439 213.750,149.690 212.400,149.580 212.400 C 149.470 212.400,148.039 213.750,146.400 215.400 M250.400 212.510 C 250.400 212.571,251.795 213.966,253.500 215.610 L 256.600 218.600 253.610 215.500 C 250.833 212.621,250.400 212.217,250.400 212.510 M81.696 249.822 L 81.600 285.443 82.820 287.368 C 83.492 288.426,84.143 289.190,84.268 289.065 C 84.393 288.940,84.203 288.545,83.845 288.188 C 82.176 286.518,82.208 287.188,81.996 250.000 L 81.792 214.200 81.696 249.822 M167.700 215.596 C 166.985 216.032,166.400 216.475,166.400 216.581 C 166.400 216.686,167.030 216.401,167.800 215.947 C 168.570 215.493,169.200 215.049,169.200 214.960 C 169.200 214.705,169.074 214.758,167.700 215.596 M231.000 215.090 C 231.220 215.300,232.120 215.876,233.000 216.370 C 233.880 216.865,234.240 216.970,233.800 216.604 C 232.906 215.861,230.372 214.491,231.000 215.090 M187.800 219.461 C 187.464 220.265,187.282 221.015,187.395 221.128 C 187.508 221.241,187.600 221.235,187.600 221.116 C 187.600 220.996,187.872 220.246,188.205 219.449 C 188.538 218.652,188.721 218.000,188.611 218.000 C 188.501 218.000,188.136 218.658,187.800 219.461 M241.978 223.066 C 243.200 224.202,245.259 226.272,246.553 227.666 C 248.367 229.619,248.535 229.742,247.286 228.200 C 245.680 226.218,243.333 223.909,240.978 221.994 C 240.305 221.447,240.755 221.930,241.978 223.066 M155.600 225.000 C 154.628 225.990,153.923 226.800,154.033 226.800 C 154.143 226.800,155.028 225.990,156.000 225.000 C 156.972 224.010,157.677 223.200,157.567 223.200 C 157.457 223.200,156.572 224.010,155.600 225.000 M263.374 227.800 C 264.767 229.852,265.052 230.095,264.277 228.571 C 263.934 227.895,263.349 227.090,262.978 226.782 C 262.607 226.474,262.785 226.932,263.374 227.800 M152.300 228.617 C 151.695 229.328,151.200 230.026,151.200 230.169 C 151.200 230.311,151.764 229.786,152.453 229.000 C 153.143 228.215,153.638 227.517,153.553 227.449 C 153.469 227.380,152.905 227.906,152.300 228.617 M170.629 228.229 C 170.481 228.815,170.438 229.372,170.532 229.466 C 170.627 229.560,170.824 229.158,170.971 228.571 C 171.119 227.985,171.162 227.428,171.068 227.334 C 170.973 227.240,170.776 227.642,170.629 228.229 M135.353 229.300 C 133.976 231.636,133.886 231.835,134.587 231.000 C 135.400 230.032,136.100 228.800,135.838 228.800 C 135.733 228.800,135.515 229.025,135.353 229.300 M215.606 229.433 C 215.609 229.855,215.795 230.470,216.018 230.800 C 216.315 231.238,216.352 231.076,216.156 230.200 C 215.827 228.729,215.598 228.410,215.606 229.433 M169.829 231.429 C 169.681 232.015,169.638 232.572,169.732 232.666 C 169.827 232.760,170.024 232.358,170.171 231.771 C 170.319 231.185,170.362 230.628,170.268 230.534 C 170.173 230.440,169.976 230.842,169.829 231.429 M229.612 230.800 C 229.612 231.130,229.787 231.670,230.000 232.000 C 230.345 232.533,230.388 232.533,230.388 232.000 C 230.388 231.670,230.213 231.130,230.000 230.800 C 229.655 230.267,229.612 230.267,229.612 230.800 M249.200 230.658 C 249.200 230.863,249.733 231.653,250.384 232.415 C 252.459 234.843,252.621 234.800,241.420 234.800 C 232.147 234.800,231.203 234.738,230.832 234.100 C 230.608 233.715,230.419 233.589,230.412 233.820 C 230.376 235.071,231.413 235.200,241.493 235.200 C 253.061 235.200,252.975 235.229,250.635 232.164 C 249.846 231.130,249.200 230.453,249.200 230.658 M149.375 232.268 C 148.759 233.076,148.459 233.611,148.709 233.456 C 149.221 233.140,150.953 230.800,150.675 230.800 C 150.576 230.800,149.991 231.461,149.375 232.268 M183.449 231.415 C 183.312 231.773,183.215 232.366,183.234 232.733 C 183.253 233.100,183.427 232.869,183.621 232.220 C 183.998 230.958,183.865 230.333,183.449 231.415 M267.600 235.200 C 268.266 236.520,268.902 237.600,269.012 237.600 C 269.122 237.600,268.666 236.520,268.000 235.200 C 267.334 233.880,266.698 232.800,266.588 232.800 C 266.478 232.800,266.934 233.880,267.600 235.200 M169.055 234.202 C 168.839 234.765,167.622 234.824,158.443 234.719 C 152.741 234.654,148.159 234.735,148.261 234.900 C 148.660 235.544,168.662 235.249,169.208 234.590 C 169.486 234.255,169.621 233.887,169.506 233.773 C 169.392 233.659,169.189 233.852,169.055 234.202 M182.891 234.200 C 183.009 234.986,183.318 235.000,200.000 235.000 C 216.682 235.000,216.991 234.986,217.109 234.200 C 217.219 233.469,217.192 233.460,216.795 234.100 C 216.392 234.748,215.149 234.800,200.000 234.800 C 184.851 234.800,183.608 234.748,183.205 234.100 C 182.808 233.460,182.781 233.469,182.891 234.200 M131.781 235.637 C 131.429 236.318,131.212 236.945,131.299 237.032 C 131.386 237.119,131.756 236.562,132.122 235.795 C 132.944 234.070,132.659 233.938,131.781 235.637 M269.326 238.400 C 269.802 239.933,270.957 242.640,271.289 243.000 C 271.716 243.464,270.142 239.332,269.542 238.415 C 269.201 237.894,269.168 237.892,269.326 238.400 M272.406 246.633 C 272.409 247.055,272.595 247.670,272.818 248.000 C 273.115 248.438,273.152 248.276,272.956 247.400 C 272.627 245.929,272.398 245.610,272.406 246.633 M147.725 248.299 C 151.204 248.366,156.784 248.366,160.125 248.299 C 163.466 248.232,160.620 248.178,153.800 248.178 C 146.980 248.178,144.246 248.233,147.725 248.299 M180.662 248.300 C 180.560 248.465,189.224 248.600,199.917 248.600 L 219.357 248.600 219.864 250.600 L 220.371 252.600 220.168 250.820 C 220.056 249.841,219.771 248.806,219.533 248.520 C 219.052 247.940,181.017 247.725,180.662 248.300 M240.125 248.299 C 243.604 248.366,249.184 248.366,252.525 248.299 C 255.866 248.232,253.020 248.178,246.200 248.178 C 239.380 248.178,236.646 248.233,240.125 248.299 M166.475 250.600 C 166.430 251.920,166.310 253.990,166.208 255.200 L 166.022 257.400 166.428 255.453 C 166.652 254.382,166.772 252.312,166.696 250.853 L 166.557 248.200 166.475 250.600 M233.331 251.000 C 233.333 252.540,233.405 253.121,233.492 252.291 C 233.579 251.461,233.577 250.201,233.489 249.491 C 233.400 248.781,233.329 249.460,233.331 251.000 M126.446 249.467 C 126.421 249.724,126.284 250.264,126.141 250.667 C 125.940 251.236,125.994 251.297,126.379 250.942 C 126.652 250.691,126.789 250.151,126.684 249.742 C 126.579 249.334,126.472 249.210,126.446 249.467 M179.800 250.800 C 179.646 251.710,179.604 252.538,179.707 252.640 C 179.810 252.743,180.013 252.077,180.160 251.160 C 180.307 250.243,180.348 249.415,180.253 249.320 C 180.158 249.224,179.954 249.890,179.800 250.800 M273.228 249.876 C 273.213 250.358,273.380 250.864,273.600 251.000 C 274.073 251.292,274.073 250.901,273.600 249.800 C 273.269 249.029,273.255 249.031,273.228 249.876 M125.429 253.429 C 125.281 254.015,125.251 254.584,125.361 254.694 C 125.471 254.804,125.681 254.415,125.829 253.829 C 125.976 253.242,126.006 252.673,125.896 252.563 C 125.786 252.453,125.576 252.842,125.429 253.429 M274.034 253.000 C 274.022 253.440,274.187 254.070,274.400 254.400 C 274.914 255.195,274.914 254.196,274.400 253.000 L 274.056 252.200 274.034 253.000 M139.067 253.467 C 138.920 253.613,138.815 254.198,138.834 254.767 C 138.868 255.781,138.875 255.779,139.221 254.620 C 139.585 253.403,139.531 253.002,139.067 253.467 M260.428 253.476 C 260.518 254.515,261.144 255.396,261.172 254.524 C 261.187 254.042,261.020 253.536,260.800 253.400 C 260.580 253.264,260.413 253.298,260.428 253.476 M220.691 258.800 C 220.805 261.770,220.966 264.275,221.049 264.367 C 221.295 264.639,221.125 259.223,220.792 256.200 C 220.586 254.326,220.553 255.185,220.691 258.800 M233.709 255.600 C 233.709 256.590,233.787 256.995,233.882 256.500 C 233.978 256.005,233.978 255.195,233.882 254.700 C 233.787 254.205,233.709 254.610,233.709 255.600 M179.056 257.845 C 178.915 258.872,178.827 261.442,178.859 263.556 C 178.917 267.285,178.928 267.233,179.238 261.812 C 179.567 256.041,179.501 254.597,179.056 257.845 M124.654 257.954 C 124.500 258.918,124.458 259.791,124.561 259.894 C 124.830 260.163,125.315 257.345,125.107 256.722 C 125.012 256.436,124.808 256.990,124.654 257.954 M138.267 256.667 C 138.120 256.813,138.021 257.578,138.046 258.367 L 138.092 259.800 138.404 258.200 C 138.731 256.519,138.705 256.228,138.267 256.667 M261.440 257.466 C 261.808 258.999,262.000 259.144,262.000 257.890 C 262.000 257.317,261.813 256.732,261.584 256.590 C 261.311 256.421,261.262 256.723,261.440 257.466 M274.806 257.433 C 274.809 258.075,274.996 258.870,275.221 259.200 C 275.514 259.630,275.554 259.346,275.362 258.200 C 275.030 256.216,274.798 255.896,274.806 257.433 M233.900 270.200 C 233.735 277.240,233.498 284.757,233.372 286.906 L 233.145 290.811 246.239 290.706 C 257.468 290.615,259.360 290.515,259.517 290.000 C 259.665 289.516,259.598 289.496,259.170 289.900 C 258.769 290.278,255.587 290.400,246.120 290.400 L 233.600 290.400 233.600 288.064 C 233.600 286.779,233.787 284.304,234.016 282.564 C 234.246 280.813,234.380 274.486,234.316 268.400 L 234.200 257.400 233.900 270.200 M165.776 269.400 C 165.776 275.560,165.832 278.024,165.899 274.876 C 165.967 271.727,165.967 266.687,165.899 263.676 C 165.831 260.664,165.776 263.240,165.776 269.400 M137.450 261.650 C 137.117 263.317,137.182 276.814,137.528 277.685 C 137.678 278.062,137.800 274.327,137.800 269.385 C 137.800 264.443,137.778 260.400,137.750 260.400 C 137.722 260.400,137.588 260.963,137.450 261.650 M262.281 264.200 C 262.521 268.880,262.736 269.441,262.740 265.400 C 262.742 263.640,262.598 261.840,262.420 261.400 C 262.238 260.950,262.177 262.173,262.281 264.200 M275.719 269.200 C 275.720 274.375,275.779 275.109,275.990 272.600 C 276.138 270.840,276.138 267.870,275.989 266.000 C 275.768 263.232,275.718 263.826,275.719 269.200 M124.160 269.400 C 124.161 272.700,124.222 273.997,124.298 272.282 C 124.373 270.567,124.372 267.867,124.297 266.282 C 124.221 264.697,124.159 266.100,124.160 269.400 M262.480 273.050 C 262.436 274.397,262.298 276.108,262.173 276.850 C 261.991 277.939,262.033 278.065,262.390 277.505 C 262.652 277.096,262.778 275.535,262.697 273.705 C 262.570 270.801,262.556 270.759,262.480 273.050 M178.847 276.033 C 178.872 278.325,179.031 281.370,179.199 282.800 C 179.381 284.348,179.421 282.730,179.299 278.800 C 179.069 271.415,178.775 269.616,178.847 276.033 M220.645 279.900 C 220.500 282.705,220.177 286.213,219.927 287.696 L 219.473 290.393 199.837 290.502 L 180.200 290.612 199.991 290.606 L 219.781 290.600 220.250 288.492 C 220.732 286.321,221.449 274.800,221.103 274.800 C 220.996 274.800,220.790 277.095,220.645 279.900 M124.468 279.200 C 124.487 280.850,125.117 282.556,125.132 281.000 C 125.138 280.340,124.989 279.440,124.800 279.000 C 124.487 278.273,124.457 278.291,124.468 279.200 M138.000 280.510 C 138.000 281.303,138.169 282.057,138.376 282.185 C 138.601 282.324,138.659 281.809,138.520 280.909 C 138.210 278.900,138.000 278.739,138.000 280.510 M275.067 279.467 C 274.920 279.613,274.816 280.288,274.836 280.967 L 274.872 282.200 275.259 280.856 C 275.645 279.513,275.569 278.964,275.067 279.467 M261.654 280.467 C 261.625 280.834,261.484 281.464,261.341 281.867 C 261.141 282.433,261.195 282.496,261.575 282.146 C 261.846 281.897,261.987 281.267,261.888 280.746 C 261.790 280.226,261.684 280.100,261.654 280.467 M166.271 284.800 C 166.398 286.890,166.569 288.675,166.651 288.767 C 166.954 289.105,166.709 282.966,166.381 282.000 C 166.177 281.399,166.133 282.514,166.271 284.800 M138.800 284.110 C 138.800 284.683,138.987 285.268,139.216 285.410 C 139.489 285.579,139.538 285.277,139.360 284.534 C 138.992 283.001,138.800 282.856,138.800 284.110 M125.234 284.000 C 125.246 284.330,125.411 284.960,125.600 285.400 L 125.944 286.200 125.966 285.400 C 125.978 284.960,125.813 284.330,125.600 284.000 C 125.255 283.467,125.215 283.467,125.234 284.000 M260.854 284.067 C 260.825 284.434,260.684 285.064,260.541 285.467 C 260.341 286.033,260.395 286.096,260.775 285.746 C 261.046 285.497,261.187 284.867,261.088 284.346 C 260.990 283.826,260.884 283.700,260.854 284.067 M274.249 284.215 C 274.112 284.573,274.016 285.256,274.036 285.733 C 274.062 286.347,274.185 286.208,274.459 285.256 C 274.857 283.872,274.694 283.058,274.249 284.215 M179.675 287.200 C 179.665 287.970,179.811 288.960,180.000 289.400 C 180.457 290.464,180.457 288.797,180.000 287.000 L 179.695 285.800 179.675 287.200 M139.628 287.076 C 139.613 287.558,139.780 288.064,140.000 288.200 C 140.473 288.492,140.473 288.101,140.000 287.000 C 139.669 286.229,139.655 286.231,139.628 287.076 M126.028 287.476 C 126.118 288.515,126.744 289.396,126.772 288.524 C 126.787 288.042,126.620 287.536,126.400 287.400 C 126.180 287.264,126.013 287.298,126.028 287.476 M273.467 287.467 C 273.320 287.613,273.211 288.108,273.225 288.567 C 273.249 289.333,273.282 289.323,273.634 288.442 C 274.026 287.463,273.944 286.989,273.467 287.467 M140.427 289.220 C 140.361 290.725,141.011 290.800,154.080 290.800 C 165.940 290.800,166.798 290.753,166.768 290.100 C 166.750 289.682,166.656 289.601,166.535 289.900 C 166.380 290.285,163.458 290.400,153.828 290.400 L 141.322 290.400 140.888 289.500 C 140.602 288.906,140.445 288.811,140.427 289.220 M273.206 290.100 C 273.200 290.839,311.918 291.221,313.062 290.494 C 313.317 290.332,304.601 290.252,293.695 290.314 C 277.871 290.406,273.799 290.325,273.539 289.914 C 273.298 289.535,273.211 289.584,273.206 290.100 M86.938 290.494 C 87.548 290.882,126.800 290.888,126.800 290.500 C 126.800 290.335,117.727 290.200,106.638 290.200 C 95.549 290.200,86.684 290.332,86.938 290.494 M353.867 328.267 C 353.484 328.649,353.538 329.200,353.957 329.200 C 354.154 329.200,354.418 328.930,354.545 328.600 C 354.779 327.990,354.353 327.781,353.867 328.267 M48.800 331.829 C 48.800 332.340,50.930 334.798,51.347 334.768 C 51.634 334.748,51.617 334.663,51.300 334.535 C 51.025 334.424,50.800 334.111,50.800 333.839 C 50.800 333.567,50.350 332.953,49.800 332.475 C 49.250 331.997,48.800 331.706,48.800 331.829 M350.800 331.957 C 350.800 332.227,350.619 332.335,350.397 332.198 C 350.176 332.061,349.887 332.230,349.755 332.572 C 349.624 332.915,349.355 333.096,349.158 332.974 C 348.961 332.852,348.800 332.928,348.800 333.143 C 348.800 333.358,349.025 333.615,349.300 333.714 C 349.588 333.819,349.334 334.114,348.700 334.412 C 347.662 334.899,347.208 335.600,347.930 335.600 C 348.515 335.600,350.000 333.771,350.000 333.051 C 350.000 332.667,350.168 332.456,350.372 332.583 C 350.803 332.849,351.399 332.066,351.040 331.707 C 350.908 331.575,350.800 331.687,350.800 331.957 M52.800 335.449 C 52.800 336.007,52.702 336.022,52.100 335.556 C 51.571 335.147,51.596 335.249,52.200 335.976 C 53.816 337.918,55.313 339.178,55.713 338.930 C 55.939 338.791,56.018 338.848,55.888 339.057 C 55.571 339.571,55.876 339.940,58.105 341.731 C 59.152 342.572,59.904 343.432,59.775 343.641 C 59.646 343.849,59.689 343.970,59.870 343.910 C 60.052 343.849,60.242 343.938,60.293 344.107 C 60.459 344.656,62.193 346.299,62.452 346.153 C 62.591 346.075,63.125 346.625,63.639 347.376 C 64.154 348.126,64.715 348.653,64.887 348.546 C 65.059 348.440,65.200 348.663,65.200 349.043 C 65.200 349.423,65.309 349.624,65.443 349.491 C 65.727 349.206,66.094 349.490,69.124 352.341 C 70.376 353.518,71.940 354.859,72.600 355.321 C 73.260 355.783,73.932 356.350,74.094 356.581 C 74.256 356.811,74.391 356.837,74.394 356.639 C 74.397 356.440,74.736 356.665,75.147 357.139 C 75.558 357.612,76.098 358.000,76.347 358.000 C 76.596 358.000,76.800 358.180,76.800 358.400 C 76.800 358.620,77.081 358.800,77.424 358.800 C 77.767 358.800,77.936 358.980,77.800 359.200 C 77.664 359.420,77.794 359.600,78.088 359.600 C 78.383 359.600,78.883 359.960,79.200 360.400 C 79.517 360.840,79.967 361.200,80.200 361.200 C 80.433 361.200,80.883 361.560,81.200 362.000 C 81.517 362.440,82.031 362.800,82.341 362.800 C 82.652 362.800,83.209 363.149,83.578 363.575 C 83.948 364.001,84.508 364.406,84.822 364.475 C 85.135 364.544,85.871 365.095,86.457 365.700 C 87.042 366.305,87.726 366.800,87.977 366.800 C 88.228 366.800,88.820 367.160,89.292 367.600 C 89.764 368.040,90.387 368.400,90.675 368.400 C 90.964 368.400,91.200 368.558,91.200 368.751 C 91.200 368.945,91.721 369.319,92.358 369.583 C 92.995 369.846,93.851 370.363,94.260 370.731 C 94.670 371.099,95.813 371.832,96.802 372.359 C 97.791 372.887,98.882 373.560,99.226 373.854 C 99.570 374.149,100.470 374.602,101.226 374.861 C 101.982 375.119,102.690 375.437,102.800 375.566 C 103.202 376.037,104.806 376.800,105.395 376.800 C 105.728 376.800,106.000 376.949,106.000 377.132 C 106.000 377.314,106.945 377.897,108.100 378.427 C 109.255 378.958,110.290 379.486,110.400 379.601 C 110.510 379.716,111.500 380.236,112.600 380.755 C 113.700 381.274,115.660 382.217,116.956 382.850 C 118.252 383.482,119.557 384.000,119.856 384.000 C 120.155 384.000,120.400 384.180,120.400 384.400 C 120.400 384.620,120.672 384.800,121.005 384.800 C 121.338 384.800,121.923 384.965,122.305 385.166 C 124.014 386.068,127.323 387.344,133.400 389.448 C 134.940 389.981,136.470 390.530,136.800 390.669 C 137.627 391.016,138.351 391.192,140.100 391.468 C 140.925 391.599,141.600 391.862,141.600 392.053 C 141.600 392.244,142.129 392.400,142.776 392.400 C 143.423 392.400,144.064 392.580,144.200 392.800 C 144.336 393.020,144.966 393.200,145.600 393.200 C 146.234 393.200,146.864 393.380,147.000 393.600 C 147.136 393.820,147.856 394.000,148.600 394.000 C 149.344 394.000,150.064 394.180,150.200 394.400 C 150.336 394.620,151.056 394.800,151.800 394.800 C 152.544 394.800,153.264 394.980,153.400 395.200 C 153.536 395.420,154.357 395.600,155.224 395.600 C 156.091 395.600,156.800 395.780,156.800 396.000 C 156.800 396.220,157.599 396.400,158.576 396.400 C 159.553 396.400,160.464 396.580,160.600 396.800 C 160.736 397.020,161.737 397.200,162.824 397.200 C 163.911 397.200,164.800 397.380,164.800 397.600 C 164.800 397.820,165.779 398.000,166.976 398.000 C 168.173 398.000,169.264 398.180,169.400 398.400 C 169.536 398.620,170.807 398.800,172.224 398.800 C 173.641 398.800,174.800 398.956,174.800 399.147 C 174.800 399.985,224.037 400.123,224.872 399.288 C 225.160 399.000,226.473 398.800,228.080 398.800 C 229.627 398.800,230.800 398.627,230.800 398.400 C 230.800 398.178,231.867 398.000,233.200 398.000 C 234.533 398.000,235.600 397.822,235.600 397.600 C 235.600 397.380,236.590 397.200,237.800 397.200 C 239.010 397.200,240.000 397.020,240.000 396.800 C 240.000 396.580,240.720 396.400,241.600 396.400 C 242.480 396.400,243.200 396.220,243.200 396.000 C 243.200 395.780,243.999 395.600,244.976 395.600 C 245.953 395.600,246.864 395.420,247.000 395.200 C 247.136 394.980,247.957 394.800,248.824 394.800 C 249.691 394.800,250.400 394.620,250.400 394.400 C 250.400 394.180,250.940 394.000,251.600 394.000 C 252.260 394.000,252.800 393.820,252.800 393.600 C 252.800 393.380,253.520 393.200,254.400 393.200 C 255.280 393.200,256.000 393.020,256.000 392.800 C 256.000 392.580,256.540 392.400,257.200 392.400 C 257.860 392.400,258.400 392.245,258.400 392.056 C 258.400 391.866,259.319 391.603,260.442 391.470 C 261.566 391.337,262.691 391.069,262.942 390.875 C 263.194 390.681,264.660 390.111,266.200 389.609 C 269.229 388.622,270.610 388.105,271.695 387.553 C 272.077 387.359,272.574 387.200,272.799 387.200 C 273.024 387.200,274.062 386.822,275.104 386.360 C 276.147 385.898,277.360 385.384,277.800 385.217 C 278.240 385.050,279.382 384.528,280.338 384.057 C 281.294 383.586,282.329 383.200,282.638 383.200 C 282.947 383.200,283.200 383.020,283.200 382.800 C 283.200 382.580,283.465 382.400,283.788 382.400 C 284.111 382.400,285.017 382.040,285.800 381.600 C 286.583 381.160,287.489 380.800,287.812 380.800 C 288.135 380.800,288.400 380.620,288.400 380.400 C 288.400 380.180,288.745 380.000,289.167 380.000 C 289.588 380.000,289.993 379.865,290.067 379.700 C 290.140 379.535,291.415 378.772,292.900 378.004 C 294.385 377.237,295.600 376.472,295.600 376.304 C 295.600 376.137,295.945 376.000,296.367 376.000 C 296.788 376.000,297.193 375.865,297.267 375.700 C 297.340 375.535,298.480 374.872,299.800 374.228 C 301.120 373.583,302.974 372.548,303.920 371.928 C 304.866 371.307,305.811 370.800,306.020 370.800 C 306.229 370.800,306.400 370.658,306.400 370.485 C 306.400 370.311,307.435 369.548,308.700 368.788 C 309.965 368.029,311.060 367.271,311.133 367.104 C 311.207 366.937,311.572 366.800,311.945 366.800 C 312.318 366.800,312.883 366.440,313.200 366.000 C 313.517 365.560,313.962 365.199,314.188 365.198 C 314.415 365.197,315.175 364.657,315.878 363.998 C 316.581 363.339,317.346 362.800,317.578 362.800 C 317.810 362.800,318.000 362.650,318.000 362.468 C 318.000 362.285,318.492 361.880,319.094 361.568 C 320.304 360.940,320.870 360.504,323.329 358.306 C 324.248 357.484,325.225 356.809,325.500 356.806 C 325.775 356.803,326.000 356.644,326.000 356.453 C 326.000 356.262,326.727 355.625,327.617 355.036 C 328.506 354.448,330.208 352.984,331.399 351.783 C 332.591 350.582,333.740 349.600,333.954 349.600 C 334.167 349.600,334.715 349.126,335.171 348.546 C 335.627 347.966,336.000 347.634,336.000 347.807 C 336.000 347.981,336.356 347.712,336.792 347.210 C 337.227 346.708,337.469 346.112,337.330 345.887 C 337.190 345.661,337.260 345.590,337.484 345.728 C 337.939 346.010,340.856 343.391,341.568 342.060 C 341.821 341.587,342.210 341.200,342.432 341.200 C 342.977 341.200,344.800 339.348,344.800 338.795 C 344.800 338.552,344.935 338.435,345.100 338.534 C 345.406 338.719,346.101 338.123,346.422 337.400 C 346.520 337.180,346.748 337.049,346.930 337.110 C 347.111 337.170,347.145 337.035,347.006 336.810 C 346.867 336.584,347.078 336.387,347.476 336.372 C 348.122 336.347,348.114 336.307,347.400 336.000 C 346.278 335.518,345.600 335.527,345.600 336.024 C 345.600 336.257,345.825 336.333,346.100 336.194 C 346.903 335.787,345.081 337.215,344.200 337.684 C 343.522 338.044,343.547 337.949,344.360 337.065 C 345.102 336.258,345.193 335.973,344.760 335.808 C 343.301 335.254,55.067 335.798,54.881 336.356 C 54.780 336.661,54.870 336.804,55.081 336.673 C 55.293 336.542,55.467 336.697,55.467 337.018 C 55.467 337.338,55.336 337.600,55.176 337.600 C 54.829 337.600,54.239 336.347,54.353 335.851 C 54.397 335.659,54.165 335.605,53.837 335.731 C 53.433 335.886,53.312 335.772,53.463 335.380 C 53.586 335.061,53.486 334.800,53.243 334.800 C 52.999 334.800,52.800 335.092,52.800 335.449 " stroke="none" fill="#b8e1fc" fill-rule="evenodd"></path><path id="path3" d="M87.000 109.600 C 86.708 110.073,87.099 110.073,88.200 109.600 C 88.971 109.269,88.969 109.255,88.124 109.228 C 87.642 109.213,87.136 109.380,87.000 109.600 M81.788 139.800 C 81.788 153.880,81.839 159.582,81.900 152.471 C 81.961 145.360,81.961 133.840,81.900 126.871 C 81.838 119.902,81.788 125.720,81.788 139.800 M318.000 165.133 C 318.000 165.488,289.558 165.624,199.900 165.699 L 81.800 165.799 199.779 165.900 C 312.239 165.997,319.273 165.940,318.273 164.940 C 318.123 164.790,318.000 164.877,318.000 165.133 M81.782 194.800 C 81.782 203.490,81.835 207.045,81.900 202.700 C 81.964 198.355,81.964 191.245,81.900 186.900 C 81.835 182.555,81.782 186.110,81.782 194.800 M195.800 193.569 C 194.422 193.703,196.211 193.805,200.000 193.809 C 204.408 193.813,205.736 193.728,204.000 193.554 C 200.935 193.247,199.065 193.250,195.800 193.569 M146.592 215.700 L 143.000 219.400 146.700 215.808 C 150.136 212.472,150.582 212.000,150.292 212.000 C 150.232 212.000,148.567 213.665,146.592 215.700 M253.000 215.600 C 254.971 217.580,256.673 219.200,256.783 219.200 C 256.893 219.200,255.371 217.580,253.400 215.600 C 251.429 213.620,249.727 212.000,249.617 212.000 C 249.507 212.000,251.029 213.620,253.000 215.600 M158.654 221.855 C 158.023 222.397,157.573 222.906,157.654 222.986 C 157.734 223.066,158.316 222.688,158.946 222.145 C 159.577 221.603,160.027 221.094,159.946 221.014 C 159.866 220.934,159.284 221.312,158.654 221.855 M240.888 221.813 C 241.486 222.443,242.047 222.877,242.135 222.779 C 242.223 222.680,241.733 222.165,241.047 221.634 L 239.800 220.669 240.888 221.813 M136.953 227.300 C 135.576 229.636,135.486 229.835,136.187 229.000 C 137.000 228.032,137.700 226.800,137.438 226.800 C 137.333 226.800,137.115 227.025,136.953 227.300 M152.600 227.746 C 151.419 229.118,151.196 229.661,152.203 228.712 C 152.838 228.114,153.277 227.547,153.179 227.452 C 153.080 227.358,152.820 227.490,152.600 227.746 M265.041 231.000 C 265.641 232.100,266.302 233.180,266.510 233.400 C 267.103 234.027,265.341 230.695,264.606 229.800 C 264.245 229.360,264.441 229.900,265.041 231.000 M170.454 230.267 C 170.425 230.744,170.296 231.464,170.170 231.867 C 169.952 232.561,169.964 232.562,170.396 231.888 C 170.647 231.497,170.775 230.777,170.681 230.288 C 170.509 229.401,170.509 229.401,170.454 230.267 M250.575 232.132 C 251.191 232.939,251.776 233.600,251.875 233.600 C 252.153 233.600,250.421 231.260,249.909 230.944 C 249.659 230.789,249.959 231.324,250.575 232.132 M133.786 232.500 L 133.152 233.800 133.967 232.800 C 134.752 231.837,135.008 231.200,134.610 231.200 C 134.506 231.200,134.135 231.785,133.786 232.500 M148.671 232.721 C 148.312 233.118,147.969 233.883,147.909 234.421 L 147.800 235.400 158.482 235.507 C 170.074 235.622,170.469 235.545,169.872 233.279 C 169.736 232.765,169.682 232.807,169.646 233.451 C 169.554 235.139,169.005 235.219,158.351 235.107 C 147.295 234.990,147.096 234.939,149.098 232.700 C 149.442 232.315,149.634 232.000,149.524 232.000 C 149.414 232.000,149.030 232.325,148.671 232.721 M230.054 233.224 C 229.927 235.614,229.979 235.624,241.567 235.507 C 250.548 235.416,252.161 235.310,252.317 234.800 C 252.465 234.316,252.398 234.296,251.970 234.700 C 251.575 235.073,248.876 235.200,241.369 235.200 C 230.644 235.200,230.661 235.203,230.293 233.200 L 230.109 232.200 230.054 233.224 M182.586 233.223 C 182.442 233.455,182.436 234.087,182.571 234.627 L 182.817 235.608 200.109 235.504 L 217.400 235.400 217.534 234.454 C 217.607 233.933,217.480 233.320,217.250 233.090 C 216.959 232.799,216.857 233.027,216.916 233.836 L 217.000 235.000 200.000 235.000 L 183.000 235.000 183.075 233.900 C 183.155 232.732,183.012 232.534,182.586 233.223 M166.300 248.265 C 166.575 248.376,166.800 248.848,166.800 249.313 C 166.800 249.944,166.916 250.044,167.253 249.707 C 167.872 249.088,167.388 247.993,166.513 248.032 C 166.094 248.050,166.006 248.146,166.300 248.265 M179.680 249.328 C 179.416 250.059,179.200 251.848,179.200 253.305 C 179.200 254.761,179.020 256.064,178.800 256.200 C 178.580 256.336,178.400 257.247,178.400 258.224 L 178.400 260.000 172.177 260.000 L 165.954 260.000 166.172 271.100 C 166.292 277.205,166.494 284.138,166.621 286.506 L 166.852 290.811 153.969 290.706 C 142.981 290.616,141.046 290.512,140.806 290.000 C 140.651 289.670,140.316 288.997,140.062 288.505 C 139.808 288.013,139.600 287.169,139.600 286.629 C 139.600 286.089,139.420 285.536,139.200 285.400 C 138.980 285.264,138.800 284.569,138.800 283.856 C 138.800 283.143,138.637 282.389,138.439 282.180 C 137.506 281.199,136.823 264.319,137.592 261.265 C 137.989 259.691,137.759 258.248,137.312 259.500 C 136.993 260.392,125.207 260.197,125.175 259.300 C 125.157 258.806,125.033 258.891,124.755 259.589 C 124.241 260.876,124.567 278.133,125.171 281.600 C 125.420 283.030,125.727 284.876,125.854 285.703 C 125.981 286.529,126.245 287.305,126.442 287.426 C 126.639 287.548,126.800 288.357,126.800 289.224 L 126.800 290.800 107.196 290.800 C 84.639 290.800,85.033 290.857,82.748 287.253 L 81.600 285.443 81.600 272.715 L 81.600 259.987 45.600 260.094 C 21.572 260.165,9.600 260.066,9.600 259.796 C 9.600 259.574,9.221 259.156,8.758 258.867 C 8.061 258.431,7.973 258.432,8.248 258.870 C 8.431 259.162,8.524 259.740,8.456 260.155 C 8.387 260.570,8.508 261.020,8.724 261.155 C 8.941 261.290,9.181 261.850,9.259 262.400 C 9.336 262.950,9.745 263.687,10.167 264.038 C 11.102 264.816,11.402 266.163,10.569 265.844 C 9.812 265.553,9.849 265.704,10.806 266.806 C 11.314 267.392,11.519 268.024,11.363 268.518 C 11.183 269.083,11.254 269.214,11.619 268.988 C 11.945 268.787,12.024 268.838,11.841 269.134 C 11.590 269.540,12.174 271.286,13.234 273.295 C 13.435 273.677,13.600 274.264,13.600 274.600 C 13.600 274.936,13.765 275.523,13.967 275.905 C 14.747 277.380,16.000 280.412,16.000 280.824 C 16.000 281.062,16.270 281.527,16.599 281.857 C 16.929 282.186,17.313 282.938,17.453 283.528 C 17.593 284.118,17.981 284.915,18.316 285.300 C 18.650 285.685,18.770 286.000,18.582 286.000 C 18.394 286.000,18.456 286.216,18.720 286.480 C 18.984 286.744,19.200 287.284,19.200 287.680 C 19.200 288.076,19.380 288.400,19.600 288.400 C 19.820 288.400,20.000 288.655,20.000 288.967 C 20.000 289.278,20.135 289.593,20.300 289.667 C 20.465 289.740,21.221 291.060,21.981 292.600 C 22.740 294.140,23.460 295.490,23.581 295.600 C 24.053 296.030,24.800 297.620,24.800 298.195 C 24.800 298.528,24.980 298.800,25.200 298.800 C 25.420 298.800,25.600 299.070,25.600 299.400 C 25.600 299.730,25.741 300.000,25.912 300.000 C 26.084 300.000,26.438 300.495,26.698 301.100 C 26.958 301.705,27.402 302.554,27.685 302.986 C 30.284 306.958,31.600 309.163,31.600 309.545 C 31.600 309.795,31.780 310.000,32.000 310.000 C 32.220 310.000,32.400 310.204,32.400 310.453 C 32.400 310.702,32.772 311.229,33.226 311.623 C 33.681 312.017,34.047 312.488,34.041 312.670 C 34.035 312.851,34.383 313.406,34.815 313.903 C 35.247 314.400,35.600 314.985,35.600 315.203 C 35.600 315.421,35.780 315.600,36.000 315.600 C 36.220 315.600,36.400 315.870,36.400 316.200 C 36.400 316.530,36.568 316.800,36.773 316.800 C 36.978 316.800,37.258 317.151,37.394 317.581 C 37.530 318.010,38.262 318.982,39.021 319.741 C 39.779 320.499,40.400 321.316,40.400 321.557 C 40.400 321.797,40.760 322.218,41.200 322.493 C 41.640 322.768,42.000 323.179,42.000 323.408 C 42.000 323.636,42.350 324.076,42.779 324.385 C 43.207 324.693,43.478 325.074,43.381 325.231 C 43.284 325.388,43.485 325.624,43.828 325.755 C 44.170 325.887,44.339 326.176,44.202 326.397 C 44.065 326.619,44.233 326.800,44.576 326.800 C 44.919 326.800,45.200 327.081,45.200 327.424 C 45.200 327.767,45.380 327.936,45.600 327.800 C 45.820 327.664,46.000 327.844,46.000 328.200 C 46.000 328.556,46.178 328.737,46.395 328.603 C 46.622 328.463,46.689 328.623,46.553 328.979 C 46.396 329.387,46.543 329.600,46.981 329.600 C 47.347 329.600,47.536 329.780,47.400 330.000 C 47.264 330.220,47.433 330.400,47.776 330.400 C 48.119 330.400,48.402 330.625,48.404 330.900 C 48.406 331.175,48.946 331.825,49.604 332.345 C 50.262 332.865,50.800 333.540,50.800 333.845 C 50.800 334.150,50.991 334.400,51.224 334.400 C 51.457 334.400,51.558 334.544,51.449 334.720 C 51.341 334.896,51.600 335.257,52.026 335.523 C 52.663 335.921,52.800 335.900,52.800 335.403 C 52.800 335.072,52.999 334.800,53.243 334.800 C 53.486 334.800,53.586 335.061,53.463 335.380 C 53.312 335.772,53.433 335.886,53.837 335.731 C 54.165 335.605,54.397 335.659,54.353 335.851 C 54.239 336.347,54.829 337.600,55.176 337.600 C 55.336 337.600,55.467 337.338,55.467 337.018 C 55.467 336.697,55.293 336.542,55.081 336.673 C 54.870 336.804,54.780 336.661,54.881 336.356 C 55.067 335.798,343.301 335.254,344.760 335.808 C 345.193 335.973,345.102 336.258,344.360 337.065 C 343.547 337.949,343.522 338.044,344.200 337.684 C 345.081 337.215,346.903 335.787,346.100 336.194 C 345.825 336.333,345.600 336.242,345.600 335.992 C 345.600 335.694,346.015 335.628,346.800 335.800 C 347.733 336.005,347.952 335.939,347.784 335.503 C 347.652 335.158,347.997 334.741,348.685 334.419 C 349.325 334.118,349.587 333.818,349.300 333.714 C 349.025 333.615,348.800 333.338,348.800 333.100 C 348.800 332.862,348.917 332.784,349.060 332.927 C 349.204 333.070,349.564 332.875,349.861 332.494 C 350.362 331.851,350.385 331.859,350.171 332.600 C 349.940 333.398,349.941 333.398,350.444 332.603 C 350.721 332.165,351.545 331.244,352.274 330.556 C 353.003 329.868,353.600 329.163,353.600 328.988 C 353.600 328.814,354.172 328.160,354.872 327.536 C 355.572 326.911,356.015 326.400,355.856 326.400 C 355.698 326.400,355.759 326.175,355.992 325.900 C 357.549 324.060,358.000 323.435,358.000 323.115 C 358.000 322.916,358.180 322.864,358.400 323.000 C 358.620 323.136,358.800 323.059,358.800 322.828 C 358.800 322.391,359.600 321.321,361.059 319.809 C 361.532 319.319,362.216 318.342,362.580 317.638 C 362.944 316.935,363.502 316.259,363.821 316.137 C 364.139 316.014,364.400 315.613,364.400 315.246 C 364.400 314.878,364.760 314.317,365.200 314.000 C 365.640 313.683,366.000 313.193,366.000 312.912 C 366.000 312.630,366.180 312.400,366.400 312.400 C 366.620 312.400,366.800 312.130,366.800 311.800 C 366.800 311.470,366.991 311.200,367.224 311.200 C 367.457 311.200,367.535 311.019,367.398 310.797 C 367.261 310.576,367.431 310.286,367.775 310.154 C 368.119 310.022,368.400 309.746,368.400 309.539 C 368.400 309.333,369.291 307.843,370.381 306.229 C 371.470 304.614,372.480 302.822,372.624 302.247 C 372.769 301.671,373.046 301.200,373.241 301.200 C 373.436 301.200,373.993 300.345,374.479 299.300 C 374.965 298.255,375.506 297.340,375.681 297.267 C 375.857 297.193,376.000 296.788,376.000 296.367 C 376.000 295.945,376.146 295.600,376.325 295.600 C 376.504 295.600,376.898 294.970,377.200 294.200 C 377.502 293.430,377.862 292.800,378.000 292.800 C 378.138 292.800,378.498 292.170,378.800 291.400 C 379.102 290.630,379.496 290.000,379.675 290.000 C 379.854 290.000,380.000 289.449,380.000 288.776 C 380.000 288.103,380.142 287.640,380.315 287.748 C 380.488 287.855,380.848 287.415,381.115 286.771 C 381.382 286.127,381.824 285.060,382.098 284.400 C 382.371 283.740,382.731 283.200,382.898 283.200 C 383.064 283.200,383.200 282.851,383.200 282.424 C 383.200 281.997,383.380 281.536,383.600 281.400 C 383.820 281.264,384.000 280.713,384.000 280.176 C 384.000 279.639,384.159 279.200,384.353 279.200 C 384.548 279.200,384.838 278.795,385.000 278.300 C 385.161 277.805,385.339 277.265,385.396 277.100 C 385.453 276.935,385.523 276.519,385.550 276.176 C 385.578 275.833,385.780 275.664,386.000 275.800 C 386.226 275.940,386.400 275.612,386.400 275.047 C 386.400 274.497,386.592 273.928,386.827 273.783 C 387.062 273.638,387.163 273.280,387.051 272.989 C 386.939 272.697,387.107 272.243,387.424 271.980 C 387.741 271.717,388.000 271.243,388.000 270.926 C 388.000 270.354,388.977 266.932,389.578 265.400 C 389.751 264.960,389.901 264.440,389.912 264.245 C 389.923 264.049,390.172 263.737,390.466 263.551 C 390.865 263.298,390.874 263.211,390.500 263.206 C 390.225 263.203,390.000 263.009,390.000 262.776 C 390.000 262.543,390.208 262.481,390.462 262.638 C 390.755 262.819,390.815 262.747,390.626 262.442 C 390.407 262.088,390.188 262.078,389.796 262.403 C 389.375 262.753,389.308 262.675,389.476 262.032 C 389.640 261.405,389.846 261.303,390.377 261.588 C 390.882 261.858,391.067 261.802,391.067 261.378 C 391.067 261.060,390.985 260.881,390.886 260.981 C 390.786 261.080,390.443 260.900,390.124 260.581 C 389.625 260.082,384.539 260.000,353.971 260.000 L 318.400 260.000 318.400 272.805 C 318.400 286.479,318.413 286.383,316.316 288.488 C 314.007 290.806,314.069 290.800,292.751 290.800 L 273.200 290.800 273.200 289.224 C 273.200 288.357,273.361 287.548,273.558 287.426 C 273.916 287.205,274.237 285.554,274.652 281.800 C 274.774 280.700,275.037 279.629,275.237 279.420 C 275.729 278.905,275.694 259.965,275.200 259.200 C 274.869 258.687,274.811 258.702,274.806 259.300 C 274.801 259.937,274.225 260.000,268.373 260.000 L 261.946 260.000 262.273 260.900 C 263.036 262.999,262.426 281.277,261.563 282.180 C 261.363 282.389,261.200 283.233,261.200 284.056 C 261.200 284.879,261.020 285.664,260.800 285.800 C 260.580 285.936,260.400 286.489,260.400 287.029 C 260.400 287.569,260.233 288.323,260.029 288.705 C 259.825 289.087,259.561 289.715,259.442 290.100 C 259.241 290.748,258.255 290.800,246.185 290.800 L 233.145 290.800 233.370 286.900 C 233.493 284.755,233.700 277.825,233.829 271.500 L 234.064 260.000 227.832 260.000 L 221.600 260.000 221.600 258.224 C 221.600 257.247,221.465 256.364,221.300 256.262 C 221.135 256.161,220.974 262.855,220.942 271.139 C 220.899 282.444,220.747 286.749,220.333 288.400 L 219.781 290.600 200.123 290.704 L 180.465 290.808 180.053 289.504 C 178.334 284.057,178.582 252.198,180.369 248.859 C 180.621 248.386,180.678 248.000,180.494 248.000 C 180.311 248.000,179.945 248.598,179.680 249.328 M232.872 248.513 C 232.602 248.839,232.582 249.242,232.817 249.613 C 233.111 250.079,233.189 250.022,233.194 249.333 C 233.197 248.857,233.425 248.376,233.700 248.265 C 234.014 248.138,234.032 248.051,233.749 248.032 C 233.501 248.014,233.106 248.231,232.872 248.513 M220.266 251.200 C 220.401 252.410,220.577 253.475,220.656 253.567 C 220.994 253.958,220.752 250.144,220.404 249.600 C 220.148 249.199,220.102 249.730,220.266 251.200 M233.200 256.533 C 233.200 258.428,233.362 259.600,233.624 259.600 C 233.910 259.600,233.958 258.651,233.772 256.700 C 233.405 252.845,233.200 252.786,233.200 256.533 M125.479 254.557 C 125.315 254.974,125.275 255.409,125.391 255.524 C 125.755 255.889,126.076 255.291,125.924 254.531 C 125.783 253.835,125.762 253.836,125.479 254.557 M274.006 254.700 C 274.003 255.195,274.180 255.600,274.400 255.600 C 274.901 255.600,274.901 255.176,274.400 254.400 C 274.086 253.915,274.011 253.972,274.006 254.700 M166.267 256.934 C 166.084 258.217,166.039 259.372,166.167 259.500 C 166.664 259.998,166.838 259.198,166.721 256.945 L 166.600 254.600 166.267 256.934 M138.000 256.024 C 138.000 256.477,138.180 256.736,138.400 256.600 C 138.620 256.464,138.800 256.093,138.800 255.776 C 138.800 255.459,138.620 255.200,138.400 255.200 C 138.180 255.200,138.000 255.571,138.000 256.024 M261.200 255.753 C 261.200 256.083,261.380 256.464,261.600 256.600 C 261.820 256.736,262.000 256.577,262.000 256.247 C 262.000 255.917,261.820 255.536,261.600 255.400 C 261.380 255.264,261.200 255.423,261.200 255.753 " stroke="none" fill="#c8e7fc" fill-rule="evenodd"></path><path id="path4" d="M86.655 110.186 C 81.870 111.892,81.947 111.383,82.084 140.600 L 82.200 165.400 200.000 165.400 L 317.800 165.400 317.903 140.210 C 318.016 112.529,318.100 113.565,315.584 111.448 C 314.919 110.889,313.706 110.245,312.888 110.018 C 310.374 109.319,88.623 109.484,86.655 110.186 M314.101 110.900 C 317.676 112.907,317.600 112.275,317.600 140.187 L 317.600 164.800 200.000 164.800 L 82.400 164.800 82.400 140.196 C 82.400 112.647,82.331 113.332,85.304 111.325 L 86.600 110.450 199.905 110.425 C 289.845 110.405,313.394 110.503,314.101 110.900 M113.754 137.943 C 106.921 141.138,109.034 151.593,116.513 151.599 C 119.838 151.601,123.601 148.952,123.600 146.609 C 123.599 146.080,123.308 146.389,122.756 147.504 C 119.964 153.144,111.328 152.042,110.189 145.900 C 108.933 139.125,116.397 135.101,121.551 139.775 C 122.294 140.449,122.820 140.730,122.719 140.400 C 121.993 138.015,116.700 136.565,113.754 137.943 M141.765 137.769 C 137.940 139.434,136.251 143.706,137.956 147.400 C 141.222 154.475,151.600 152.213,151.600 144.426 C 151.600 139.280,146.391 135.755,141.765 137.769 M169.509 137.749 C 166.618 139.031,164.284 143.169,165.136 145.502 C 165.501 146.501,165.540 146.419,165.575 144.600 C 165.727 136.620,177.028 135.103,178.760 142.831 C 180.449 150.371,170.384 154.441,166.362 147.845 C 165.945 147.160,165.602 146.831,165.601 147.114 C 165.592 150.357,171.901 152.687,175.593 150.804 C 183.508 146.766,177.628 134.148,169.509 137.749 M147.600 138.529 C 153.319 141.407,151.779 150.382,145.445 151.096 C 140.525 151.651,136.721 147.475,137.949 142.868 C 139.134 138.427,143.498 136.464,147.600 138.529 M82.001 232.300 L 82.003 285.400 82.856 286.800 C 83.996 288.671,85.025 289.514,86.758 289.995 C 88.476 290.472,126.256 290.557,126.548 290.084 C 126.655 289.911,126.422 288.516,126.031 286.984 C 122.228 272.112,123.993 252.051,130.248 239.031 C 130.769 237.948,131.108 236.975,131.003 236.869 C 130.897 236.763,130.352 237.740,129.792 239.039 C 129.231 240.337,128.611 241.760,128.413 242.200 C 127.696 243.792,126.277 248.469,125.228 252.700 C 124.668 254.960,124.049 259.281,123.567 264.295 C 122.897 271.279,123.745 279.771,126.053 289.200 C 126.182 289.727,123.795 289.800,106.368 289.800 L 86.537 289.800 85.125 288.723 C 82.190 286.483,82.400 290.840,82.400 232.240 L 82.400 179.600 199.998 179.600 L 317.596 179.600 317.700 215.300 L 317.804 251.000 317.902 215.100 L 318.000 179.200 200.000 179.200 L 82.000 179.200 82.001 232.300 M192.476 193.140 C 191.968 193.283,195.354 193.400,200.000 193.400 C 204.646 193.400,208.032 193.283,207.524 193.140 C 207.016 192.997,203.630 192.880,200.000 192.880 C 196.370 192.880,192.984 192.997,192.476 193.140 M186.400 194.016 C 185.982 194.297,186.467 194.339,188.000 194.155 C 189.210 194.010,190.275 193.826,190.367 193.746 C 190.770 193.393,186.938 193.654,186.400 194.016 M209.633 193.746 C 209.725 193.826,210.790 194.010,212.000 194.155 C 213.533 194.339,214.018 194.297,213.600 194.016 C 213.062 193.654,209.230 193.393,209.633 193.746 M182.200 194.799 C 181.760 194.988,180.860 195.268,180.200 195.421 C 179.540 195.574,179.186 195.768,179.412 195.853 C 179.639 195.939,181.169 195.656,182.812 195.226 C 185.051 194.640,185.449 194.445,184.400 194.449 C 183.630 194.452,182.640 194.609,182.200 194.799 M217.361 195.234 C 219.100 195.662,220.606 195.927,220.708 195.825 C 220.811 195.723,220.378 195.528,219.747 195.392 C 219.116 195.256,218.187 194.977,217.681 194.772 C 217.176 194.568,216.186 194.413,215.481 194.429 C 214.617 194.448,215.230 194.711,217.361 195.234 M176.600 196.394 C 176.160 196.580,175.459 196.842,175.043 196.976 C 174.626 197.110,174.371 197.304,174.475 197.408 C 174.579 197.512,175.640 197.251,176.832 196.828 C 178.024 196.405,178.640 196.057,178.200 196.056 C 177.760 196.055,177.040 196.207,176.600 196.394 M221.800 196.400 C 222.996 196.914,223.995 196.914,223.200 196.400 C 222.870 196.187,222.240 196.022,221.800 196.034 L 221.000 196.056 221.800 196.400 M224.000 196.968 C 224.000 197.060,224.945 197.443,226.100 197.818 C 243.287 203.406,259.658 218.408,268.837 236.983 C 270.136 239.613,271.200 241.546,271.200 241.277 C 271.200 239.936,263.874 226.702,261.525 223.800 C 256.505 217.599,252.992 213.895,249.200 210.804 C 247.990 209.818,246.910 208.902,246.800 208.768 C 244.535 206.015,224.000 195.387,224.000 196.968 M171.600 198.278 C 170.830 198.614,169.770 199.055,169.245 199.256 C 168.719 199.458,168.378 199.711,168.486 199.819 C 168.594 199.928,169.924 199.479,171.441 198.822 C 172.959 198.166,173.930 197.637,173.600 197.647 C 173.270 197.657,172.370 197.941,171.600 198.278 M164.181 201.742 C 160.729 203.596,154.254 207.836,152.257 209.552 C 142.980 217.518,136.457 225.507,132.018 234.339 C 130.558 237.244,131.322 236.560,132.977 233.481 C 136.937 226.110,143.616 217.630,149.433 212.586 C 150.946 211.274,152.541 209.881,152.977 209.492 C 155.108 207.586,160.027 204.449,165.200 201.696 C 168.020 200.196,168.323 199.997,167.767 200.007 C 167.565 200.010,165.951 200.791,164.181 201.742 M197.769 207.367 C 194.864 208.632,187.470 218.004,188.536 219.070 C 188.644 219.177,189.051 218.575,189.441 217.732 C 192.074 212.039,196.166 207.948,200.000 207.174 C 201.365 206.899,201.370 206.891,200.200 206.862 C 199.540 206.845,198.446 207.073,197.769 207.367 M201.800 207.600 C 201.936 207.820,202.278 208.000,202.560 208.000 C 204.531 208.000,210.189 215.920,212.387 221.755 C 212.627 222.391,212.926 222.807,213.054 222.680 C 213.466 222.267,209.272 214.266,207.401 211.896 C 205.262 209.187,200.544 205.569,201.800 207.600 M175.380 211.936 C 175.171 212.121,174.370 212.513,173.600 212.808 C 171.335 213.677,163.731 218.265,164.042 218.576 C 164.139 218.672,165.114 218.152,166.209 217.420 C 167.304 216.688,169.815 215.245,171.790 214.214 C 175.450 212.302,176.145 212.307,175.246 214.239 C 175.001 214.768,174.644 215.605,174.454 216.100 C 174.263 216.595,173.920 217.450,173.691 218.000 C 172.110 221.797,171.506 223.654,170.027 229.254 C 169.410 231.593,168.780 233.708,168.629 233.954 C 168.286 234.509,149.200 234.589,149.200 234.036 C 149.200 232.926,158.096 223.413,162.431 219.887 C 163.184 219.275,163.431 218.947,162.980 219.158 C 161.721 219.748,155.188 225.641,153.481 227.725 C 152.646 228.746,151.746 229.814,151.481 230.100 C 149.902 231.805,148.392 234.063,148.602 234.403 C 148.935 234.942,168.666 234.940,168.999 234.402 C 169.134 234.182,169.686 232.267,170.224 230.146 C 171.435 225.370,173.233 220.083,175.198 215.515 C 176.022 213.598,176.600 211.933,176.482 211.815 C 176.176 211.509,175.818 211.548,175.380 211.936 M223.484 211.850 C 223.347 211.987,223.558 212.752,223.953 213.550 C 225.803 217.286,228.481 224.960,230.042 231.000 C 230.270 231.880,230.583 233.050,230.737 233.600 L 231.019 234.600 241.309 234.707 C 248.013 234.776,251.600 234.673,251.600 234.411 C 251.600 230.804,235.326 216.765,226.600 212.846 C 225.940 212.549,225.087 212.148,224.705 211.953 C 223.879 211.533,223.807 211.527,223.484 211.850 M230.414 215.366 C 234.521 217.717,238.496 220.539,241.149 222.986 C 245.250 226.770,250.800 233.088,250.800 233.973 C 250.800 234.568,231.750 234.567,231.383 233.972 C 231.237 233.736,230.764 232.161,230.331 230.472 C 228.955 225.096,228.097 222.273,227.180 220.100 C 226.971 219.605,226.644 218.795,226.454 218.300 C 225.876 216.799,225.127 215.040,224.753 214.305 C 223.535 211.911,224.789 212.146,230.414 215.366 M187.455 221.055 C 187.076 221.849,186.853 222.586,186.959 222.693 C 187.066 222.799,187.436 222.209,187.782 221.382 C 188.598 219.429,188.349 219.180,187.455 221.055 M186.200 224.000 C 186.050 224.473,186.017 224.950,186.127 225.060 C 186.237 225.170,186.450 224.873,186.600 224.400 C 186.750 223.927,186.783 223.450,186.673 223.340 C 186.563 223.230,186.350 223.527,186.200 224.000 M213.200 223.414 C 213.200 224.108,215.379 230.063,215.500 229.700 C 215.645 229.266,213.637 223.200,213.348 223.200 C 213.267 223.200,213.200 223.296,213.200 223.414 M185.400 226.400 C 185.250 226.873,185.217 227.350,185.327 227.460 C 185.437 227.570,185.650 227.273,185.800 226.800 C 185.950 226.327,185.983 225.850,185.873 225.740 C 185.763 225.630,185.550 225.927,185.400 226.400 M184.200 230.258 C 183.830 231.533,183.498 233.031,183.463 233.588 L 183.400 234.600 199.995 234.600 C 215.578 234.600,216.593 234.557,216.654 233.892 C 216.699 233.397,216.662 233.367,216.530 233.792 C 216.319 234.472,184.259 234.742,183.842 234.068 C 183.729 233.886,184.002 232.519,184.448 231.031 C 184.895 229.544,185.173 228.240,185.067 228.134 C 184.961 228.027,184.571 228.984,184.200 230.258 M215.612 231.000 C 215.612 231.440,215.787 232.070,216.000 232.400 C 216.321 232.897,216.388 232.862,216.388 232.200 C 216.388 231.760,216.213 231.130,216.000 230.800 C 215.679 230.303,215.612 230.338,215.612 231.000 M271.200 242.049 C 271.200 242.636,272.517 246.016,272.682 245.852 C 272.903 245.630,271.992 242.785,271.518 242.220 C 271.343 242.011,271.200 241.934,271.200 242.049 M272.800 246.573 C 272.800 246.742,273.227 248.527,273.750 250.540 C 276.738 262.060,276.790 277.930,273.871 287.630 C 273.577 288.608,273.410 289.631,273.501 289.904 C 273.712 290.536,310.986 290.622,313.242 289.995 C 315.738 289.302,318.020 286.505,317.972 284.200 C 317.951 283.227,317.844 283.379,317.410 285.000 C 316.084 289.945,315.857 289.990,292.468 289.996 L 273.936 290.000 274.184 288.700 C 274.320 287.985,274.589 286.680,274.783 285.800 C 276.853 276.392,277.158 269.934,275.993 260.200 C 275.462 255.763,275.085 253.837,273.662 248.268 C 273.298 246.847,272.800 245.867,272.800 246.573 M140.805 249.386 C 140.004 251.494,139.137 254.870,139.344 255.077 C 139.463 255.197,139.678 254.778,139.821 254.147 C 139.964 253.516,140.385 252.100,140.756 251.000 L 141.431 249.000 153.916 249.000 C 160.782 249.000,166.400 248.865,166.400 248.700 C 166.400 248.535,160.726 248.400,153.790 248.400 L 141.180 248.400 140.805 249.386 M180.673 248.696 C 178.960 251.610,178.552 276.758,180.051 287.100 L 180.529 290.400 200.064 290.400 L 219.600 290.400 219.554 289.500 C 219.519 288.823,219.462 288.773,219.324 289.300 C 219.153 289.954,217.894 290.000,200.012 290.000 L 180.883 290.000 180.348 286.500 C 179.598 281.596,179.601 258.010,180.351 252.700 L 180.903 248.800 200.024 248.800 C 217.904 248.800,219.155 248.845,219.311 249.500 C 219.439 250.033,219.469 250.009,219.439 249.400 C 219.398 248.569,181.156 247.874,180.673 248.696 M233.632 249.094 C 233.650 249.513,233.745 249.597,233.865 249.300 C 234.020 248.915,236.858 248.800,246.153 248.800 C 258.855 248.800,259.200 248.848,259.200 250.600 C 259.200 251.062,259.351 251.611,259.536 251.820 C 259.720 252.029,260.091 253.280,260.360 254.600 C 260.628 255.920,261.017 257.553,261.224 258.228 C 261.431 258.904,261.610 260.164,261.623 261.028 C 261.636 261.893,261.808 263.320,262.005 264.200 C 262.277 265.409,262.312 265.018,262.149 262.600 C 261.943 259.538,260.693 253.594,259.540 250.200 L 258.997 248.600 246.298 248.494 C 234.383 248.395,233.602 248.432,233.632 249.094 M233.686 251.600 C 233.682 252.590,233.816 254.390,233.983 255.600 L 234.287 257.800 234.321 255.400 C 234.339 254.080,234.205 252.280,234.023 251.400 L 233.692 249.800 233.686 251.600 M165.898 252.156 C 165.734 253.232,165.623 255.122,165.652 256.356 L 165.704 258.600 166.060 255.600 C 166.496 251.938,166.363 249.113,165.898 252.156 M219.878 254.200 C 220.004 256.180,220.172 257.875,220.253 257.967 C 220.551 258.304,220.309 252.567,219.985 251.600 C 219.786 251.005,219.743 252.058,219.878 254.200 M138.619 257.127 C 138.455 258.077,138.417 258.950,138.534 259.068 C 138.826 259.359,139.326 256.573,139.100 255.921 C 139.000 255.635,138.784 256.177,138.619 257.127 M220.527 269.400 C 220.528 280.086,220.545 280.349,220.911 275.136 C 221.157 271.643,221.157 267.604,220.911 263.936 C 220.537 258.366,220.526 258.524,220.527 269.400 M234.516 269.200 C 234.516 278.658,234.552 279.244,234.845 274.637 C 235.026 271.797,235.026 267.027,234.845 264.037 C 234.545 259.072,234.517 259.520,234.516 269.200 M137.898 261.356 C 137.734 262.432,137.623 264.322,137.652 265.556 L 137.704 267.800 138.060 264.800 C 138.496 261.138,138.363 258.313,137.898 261.356 M165.131 265.100 C 165.028 267.685,165.061 271.780,165.204 274.200 C 165.420 277.852,165.475 277.053,165.532 269.500 C 165.606 259.610,165.427 257.648,165.131 265.100 M262.493 269.600 C 262.493 270.370,262.575 270.685,262.676 270.300 C 262.776 269.915,262.776 269.285,262.676 268.900 C 262.575 268.515,262.493 268.830,262.493 269.600 M137.673 274.200 C 137.658 275.300,137.795 276.920,137.977 277.800 L 138.308 279.400 138.324 277.600 C 138.333 276.610,138.197 274.990,138.020 274.000 L 137.700 272.200 137.673 274.200 M261.854 275.056 C 261.714 276.077,261.600 277.459,261.600 278.127 C 261.600 278.796,261.434 279.896,261.231 280.572 C 261.028 281.247,260.651 282.790,260.393 284.000 C 259.811 286.737,259.148 288.843,258.658 289.511 C 258.365 289.911,255.598 289.998,245.942 289.911 C 239.154 289.850,233.600 289.935,233.600 290.100 C 233.600 290.657,258.657 290.460,259.079 289.900 C 259.975 288.712,261.805 280.768,262.212 276.300 C 262.518 272.932,262.266 272.053,261.854 275.056 M138.432 280.133 C 138.390 281.094,139.862 286.840,140.661 288.836 L 141.287 290.400 153.801 290.400 C 164.843 290.400,166.343 290.326,166.557 289.767 C 166.943 288.763,166.841 288.591,166.300 289.330 C 165.845 289.952,164.716 290.003,153.619 289.906 L 141.438 289.800 140.800 288.000 C 140.450 287.010,139.926 285.120,139.637 283.800 C 138.927 280.566,138.472 279.183,138.432 280.133 M165.706 283.000 C 165.700 284.540,165.832 286.340,166.000 287.000 C 166.426 288.675,166.436 285.988,166.015 282.600 L 165.718 280.200 165.706 283.000 M219.882 284.349 C 219.707 286.410,219.647 288.181,219.749 288.282 C 220.052 288.585,220.472 284.342,220.331 282.400 C 220.235 281.083,220.115 281.606,219.882 284.349 M233.833 284.518 C 233.651 286.453,233.599 288.132,233.716 288.249 C 234.016 288.550,234.504 283.648,234.318 282.198 C 234.234 281.539,234.016 282.583,233.833 284.518 " stroke="none" fill="#80b6fc" fill-rule="evenodd"></path></g></svg>